<?xml version="1.0" encoding="UTF-8" standalone="no"?>
<!DOCTYPE svg PUBLIC "-//W3C//DTD SVG 1.1//EN" "http://www.w3.org/Graphics/SVG/1.1/DTD/svg11.dtd">
<svg width="100%" height="100%" viewBox="0 0 820 818" version="1.1" xmlns="http://www.w3.org/2000/svg" xmlns:xlink="http://www.w3.org/1999/xlink" xml:space="preserve" xmlns:serif="http://www.serif.com/" style="fill-rule:evenodd;clip-rule:evenodd;stroke-linejoin:round;stroke-miterlimit:2;">
    <g transform="matrix(6.12323e-17,-1,1,6.12323e-17,-0.00943585,817.114)">
        <path d="M277.5,242.4C191.6,292.9 105.6,343.3 19.7,393.8C16.1,395.9 12.3,398.1 10.1,401.6C7.2,406 7.1,411.6 7.2,416.8C7.7,541.9 8.2,667 8.7,792.2C8.7,805.9 27,810.3 40.7,810.4C119.6,811.1 198.5,811.8 277.4,812.5C198.7,814 120.1,815.5 41.5,817C30.6,817.2 18.3,816.8 11,808.6C4.9,801.8 4.6,791.8 4.5,782.6C3.9,649.5 3.4,516.5 2.8,383.4C2.7,378.5 2.8,373.3 5.4,369.1C7.6,365.7 11.2,363.5 14.7,361.5C101.4,310.4 188,259.3 274.7,208.2C283.9,202.8 295.4,197.3 304.7,202.5C463.4,292.4 622,382.2 780.7,472C791.1,478 801.9,484.2 809.3,493.7C816.6,503.3 819.7,517.2 813.4,527.5C720.6,474 627.6,421.1 534.3,368.6C528.7,365.5 521.7,368.8 516.2,372.1C452.3,409.5 388.4,446.9 324.5,484.4C319.9,487.1 315,490 312.5,494.8C310.4,498.9 310.4,503.8 310.4,508.4C311.2,610.3 312,712.2 312.7,814C302.4,814.5 292,814.9 281.6,815.4C280.2,624.4 278.9,433.4 277.5,242.4M297,555.5C296.5,554.6 295.3,554.2 294.4,554.5C292.6,551.4 299.4,548.8 298.5,545.4C297.1,540.8 296.6,535.9 296.9,531.1C296.5,533.8 295.8,536.6 294.7,539.1C294.4,537.6 294.1,536.1 293.7,534.5C292.7,540.1 292.7,545.9 293.6,551.5C292.1,555.5 291.7,559.9 292.6,564C295,561.9 296.7,558.8 297,555.5M45.7,367.1C47.4,364.9 49.9,363.3 52.7,362.8C53,361.9 53.3,361 53.6,360.1C54.5,359.9 55.5,360.7 55.4,361.6C59.3,358.8 63.1,355.6 66.5,352.1C67.9,352.4 69.4,352.8 70.7,352.1C72,351.5 72.7,349.5 71.6,348.6C70.1,350.6 67.3,351.5 65,350.7C66.1,350.3 66.4,348.7 65.6,347.8C66.6,346.2 67.7,344.5 68.7,342.8C65.6,344.4 62.5,346.2 59.4,347.9C52.7,351.7 46.1,355.5 39.5,359.3C35.9,361.3 32.3,363.4 29.1,365.9C29.5,365 30.9,366.5 30.2,367.1C29.5,367.8 28.4,367.5 27.5,367.2C27.5,368.5 27.2,369.9 26.7,371.1C26.7,370.1 25.7,369.2 24.7,369.2C22.6,369.8 21.4,371.9 20.1,373.7C18.7,375.4 16.5,377 14.5,376.2C13.8,377.6 12.6,378.9 11.2,379.6C12.2,380 13.2,380.3 14.2,380.6C12.5,381.4 11.7,383.6 12.5,385.2C16.6,382.9 20.7,380.5 24.7,378.2C24.2,376.2 24.9,374 26.4,372.7C27.1,373.6 27.2,375 26.7,376.1C33,373.1 39.4,370.1 45.7,367.1M294.4,318.8C293.6,318.3 292.8,317.9 291.9,317.5C293,313.4 292.5,309 290.5,305.3C289.7,318.4 289.8,331.5 291.1,344.6C291.3,347.1 291.4,350.1 289.3,351.5C290.1,352.8 290.5,354.4 290.5,355.9C291.7,354.4 294.1,356.4 294.5,358.3C295,360.2 295.4,362.8 297.3,363.1C296.9,349.8 297.1,336.5 297.2,323.2C297.3,315.6 297.4,307.9 297.5,300.3C299.8,295.2 302,290.1 304.3,285.1C301.2,285.4 298.4,287.9 297.8,291C300,293.6 296,296.9 294.5,300C291.6,305.8 298,313.4 294.4,318.8M293.6,224.1C293.4,220.4 293.3,216.7 293.2,213.1C296.6,213.9 299.9,215.5 302.7,217.7C302.1,214 298,211.7 294.3,211.9C290.6,212 287.2,213.9 284,215.8C260.7,229.6 237.4,243.3 214,257C216.8,257.9 219.5,258.7 222.2,259.6C214.8,259.7 207.3,261.3 200.5,264.3C196.2,266.2 192.1,268.6 188.1,271C149.8,294.1 111.5,317.1 73.2,340.1C73.6,343.3 74,346.4 74.3,349.6C139.5,310.9 204.7,272.3 269.9,233.6C266.8,234.6 263.7,235.5 260.5,236.4C259.2,235.3 257.6,234.5 256,234.2C262.7,231.1 269.4,228.1 276.2,225C281.2,225.8 286.4,225.4 291.2,223.6C287.7,223.3 284.2,223 280.6,222.7C281.4,219.6 284.6,217.4 287.7,217.7C290.8,218 293.5,220.9 293.6,224.1M310.3,456.2C372.9,420.4 435.2,384.1 497.1,347.3C461.6,327 426.1,306.8 390.7,286.5C378.9,279.8 366.4,272.9 352.9,272.4C336.5,272 320.4,282.1 313.6,297C308.6,308 308.7,320.6 308.8,332.7C309.3,373.9 309.8,415 310.3,456.2M291.4,441.4C291.6,444.2 293.1,447.9 295.7,447C295.9,445.7 294.4,444.9 293.1,444.6C294.4,444.3 295.7,444 296.9,443.6C294.8,440.4 294.1,436.3 294.8,432.5C292.9,430.9 293.6,427.9 294.5,425.6C294.9,424.8 295.2,423.9 296,423.4C296.8,423 298,423.2 298.2,424.1C299,412 296.8,399.6 292,388.5C290.1,394.9 290.5,402 292.9,408.3C293,409.1 294.1,409.5 294.7,409C295.6,412.3 295.1,416 293.2,418.9C294.2,416.6 293.4,413.7 291.4,412.3C291,422 291,431.7 291.4,441.4M293.9,287.6C292.5,279.9 292.6,272 294.4,264.4C292.5,261.9 292.4,258.5 292.5,255.3C292.6,247.4 292.7,239.5 292.8,231.6C292.8,229.4 292.4,226.6 290.2,226.3C290.1,240.6 290,254.9 289.9,269.3C289.9,280.3 289.8,291.3 291.2,302.2C292.8,298.2 293.2,293.6 292.4,289.4C292.7,290.5 294.1,288.8 293.9,287.6M294.9,484.7C292.3,483.8 291,487.7 291.2,490.3C291.5,496.8 291.8,503.2 292.1,509.6C293.5,508 296.1,509.1 297.8,510.4C299,505.4 298.1,500.1 298,495C297.8,489.8 298.5,484.2 302.2,480.6C300.8,479.6 299.4,478.6 297.9,477.6C297.5,479 296.4,480.1 295.1,480.7C296,481.9 295.8,483.6 294.9,484.7M291.3,364.8C289.5,371.6 289.6,378.9 291.5,385.7C293.3,385.4 295.4,386.2 296.5,387.7C298.7,381.1 297.3,373.3 292.9,367.9C292.4,366.9 291.9,365.9 291.3,364.8M296.5,621.1C297.5,614.6 298.5,608 299.5,601.4C298.9,600.3 298.3,599.1 297.8,597.9C299.7,593.2 299.3,587.5 296.6,583.2C292.8,587.2 293.7,593.7 295.2,599C296.7,604.4 298.5,610.4 295.8,615.2C295.4,614.3 295.1,613.3 294.7,612.4C293.4,615.3 294.2,619 296.5,621.1M294.8,650.2C292.8,651.7 293,655.3 295.2,656.5C294.5,657.6 293.8,658.6 293.1,659.6C295.6,661.5 298.8,657.9 298.9,654.8C299,651.7 297.9,648.3 299.6,645.7C297.7,646.9 296,643.6 296.5,641.5C297.1,639.3 298.2,636.6 296.5,635.1C293.4,639.7 293.6,646.3 297.1,650.6C296.4,651.2 295.3,651 294.8,650.2M294.2,523.6C295.4,523.2 296.6,522.8 297.8,522.3C298.4,520.7 299,519 298.8,517.3C298.6,515.6 297.2,513.9 295.4,513.9C293.3,514.1 292.2,516.5 292,518.7C291.6,522.3 292.5,526.1 294.4,529.2C295.1,527.5 295.8,525.7 296.5,524C295.8,524.2 294.8,524.1 294.2,523.6M292.7,455.1C291.9,456.5 291.9,458.4 292.7,459.9C294.9,460.1 297.1,458.7 297.8,456.6C298.5,454.6 297.6,452.1 295.7,450.9C295.8,451.9 295.9,452.9 296,453.9C294.8,453.7 293.5,454.1 292.6,455M296.5,573.4C295.5,573 294.5,572.6 293.5,572.2C293.1,574.3 293,576.5 293.3,578.7C294.7,577.4 297.3,578.2 297.7,580C298.6,577.6 298.5,574.9 297.5,572.5M329.8,231.9C327.3,229.9 324.2,228.6 321.1,228.1C321.7,229.4 322.3,230.7 322.9,232C326.1,231.6 330.3,232.9 330.6,236.1C332.2,235.4 331.4,232.4 329.7,232.5M311.1,225.6C312.2,226.4 313.2,227.2 314.2,228C315.1,226.5 317,225.8 318.6,226.4C316.9,224.3 314.3,222.8 311.6,222.3C310.3,222.9 309.7,224.9 310.6,226.1M309.9,276.9C312.1,275.2 313.9,272.9 315.1,270.4C312,271.7 309.3,274.1 307.5,277C306.9,276.4 306.3,275.7 305.7,275.1C304.5,275.7 305.1,277.7 306.4,278.1C307.6,278.4 308.9,277.7 309.9,276.9M318.7,259C317.6,259.1 316.5,259.1 315.4,259.1C317.9,261.1 318.7,264.9 317.1,267.7C319,266.6 321,265.5 322.9,264.4C322,263.5 320.4,263.3 319.3,264C319.4,262.3 319.6,260.7 319.7,259.1M336.7,238.1C335.7,239.1 336.2,241.2 337.6,241.6C339.8,241.3 342,240.9 344.2,240.6C342.5,240.1 341.1,238.7 340.7,237C339.8,238.2 338.1,238.8 336.6,238.4M340.7,459.1C338.9,459.4 337.2,460.2 336.1,461.6C337.7,463.6 340.9,462 343,460.4C343.5,459.7 343.4,458.7 342.7,458.2C342,457.8 340.9,458.3 340.9,459.1M293.3,471.5C293.1,469.7 292.9,467.9 292.7,466C291.8,470.4 291.9,474.9 292.7,479.3C295.1,477.9 294.1,474.2 292.8,471.8M313.3,471.7C311.9,472.8 310.1,473.4 308.3,473.3C310.6,475.6 315.2,474.7 316.4,471.7C315.5,470.9 314.2,470.8 313.2,471.4" style="fill-rule:nonzero;"/>
    </g>
    <g transform="matrix(6.12323e-17,-1,1,6.12323e-17,-0.00943585,817.114)">
        <path d="M45.1,783.3C48.6,782.8 52.2,783.7 55.1,785.8C52.5,785.7 50,786.2 47.7,787.1C47.1,785.7 46.2,784.4 45.1,783.3" style="fill-rule:nonzero;"/>
    </g>
    <g transform="matrix(6.12323e-17,-1,1,6.12323e-17,-0.00943585,817.114)">
        <path d="M762.2,798.5C762,797.7 762.1,796.6 762.8,796.1C763.5,795.6 764.8,796.1 764.6,797C766.1,800 763.7,804.2 760.3,804.3C760.9,802.3 761.4,800.4 761.9,798.5" style="fill-rule:nonzero;"/>
    </g>
    <g transform="matrix(6.12323e-17,-1,1,6.12323e-17,-0.00943585,817.114)">
        <path d="M85.1,334.3C87.4,335.2 90.1,334.8 92,333.3C91.3,335.6 89.1,337.5 86.7,337.7C85,337.4 84,335.3 84.7,333.8" style="fill-rule:nonzero;"/>
    </g>
    <g transform="matrix(6.12323e-17,-1,1,6.12323e-17,-0.00943585,817.114)">
        <path d="M291.5,354.8C292.5,351.7 293.5,348.6 294.5,345.5C294.7,349.3 294.9,353.2 295.1,357.1C294.1,356.4 293.2,355.7 292.3,355" style="fill-rule:nonzero;"/>
    </g>
    <g transform="matrix(6.12323e-17,-1,1,6.12323e-17,-0.00943585,817.114)">
        <path d="M171.3,287.1C172.1,288.4 171.6,290.4 170.3,291.2C169.7,290.5 169,289.8 168.4,289.1C168.2,291.6 164.2,292.5 163,290.4C165.6,289.1 168.3,287.8 170.9,286.6" style="fill-rule:nonzero;"/>
    </g>
    <g transform="matrix(6.12323e-17,-1,1,6.12323e-17,-0.00943585,817.114)">
        <path d="M110.5,319.9C111.9,319 114,320 114.2,321.6C113.1,322.9 111.2,323.5 109.6,323C109.2,325.4 106.7,327.4 104.2,327.1C105.1,323.9 107.6,321.2 110.7,320.1" style="fill-rule:nonzero;"/>
    </g>
    <g transform="matrix(6.12323e-17,-1,1,6.12323e-17,-0.00943585,817.114)">
        <path d="M48.7,359.6C50,358.2 51.3,356.7 52.7,355.2C54.2,356 55.8,356.4 57.4,356.5C57.3,358 55.3,358.3 53.9,358.7C52.4,359.1 51.4,361.6 52.9,361.8C51.7,361.2 50.5,360.5 49.3,359.9" style="fill-rule:nonzero;"/>
    </g>
    <g transform="matrix(6.12323e-17,-1,1,6.12323e-17,-0.00943585,817.114)">
        <path d="M44.2,360.1C45,359.7 45.8,359.4 46.7,359.1C47.2,359.7 47.3,360.6 47.1,361.4C45.6,362.5 44.1,363.6 42.6,364.7C40.8,364.6 39,364.3 37.2,363.8C39.1,362 41.6,360.8 44.2,360.4" style="fill-rule:nonzero;"/>
    </g>
    <g transform="matrix(6.12323e-17,-1,1,6.12323e-17,-0.00943585,817.114)">
        <path d="M142.1,302.4C143,302.2 143.8,302.1 144.6,302C144.5,301.1 144.4,300.1 144.3,299.2C146.1,299.4 147.8,298.5 148.7,297C149.5,298.1 150.3,299.2 151.1,300.3C147.7,301.9 144.4,303.4 141,305C140,304.4 140.9,302.4 142,302.8" style="fill-rule:nonzero;"/>
    </g>
    <g transform="matrix(6.12323e-17,-1,1,6.12323e-17,-0.00943585,817.114)">
        <path d="M188.6,276C188.5,278.7 185.4,280.8 182.9,279.8C185.6,275.3 191.1,272.6 196.3,273.1C194.5,275.3 191.4,276.5 188.6,276" style="fill-rule:nonzero;"/>
    </g>
    <g transform="matrix(6.12323e-17,-1,1,6.12323e-17,-0.00943585,817.114)">
        <path d="M175.6,287.4C175.1,287 174.6,286.7 174.2,286.4C174.9,288.1 172.4,289.9 171,288.7C172.5,283.6 178,280 183.2,280.6C180.1,282 177.4,284.4 175.6,287.4" style="fill-rule:nonzero;"/>
    </g>
    <g transform="matrix(6.12323e-17,-1,1,6.12323e-17,-0.00943585,817.114)">
        <path d="M121.5,314.8C125.7,311 130.7,308.2 136.2,306.8C135.6,307.9 134.9,309 134.3,310C134,310.6 133.5,311.3 132.8,311.5C132.1,311.6 131.3,310.8 131.7,310.2C131.4,311.2 131,312.1 130.6,313C128.7,311.4 126.3,314.3 125.3,316.6C124.4,318.9 121.4,321.5 120,319.4C121.5,318.2 123.1,317 124.6,315.9C123.6,315.5 122.6,315.2 121.5,314.8" style="fill-rule:nonzero;"/>
    </g>
    <g transform="matrix(6.12323e-17,-1,1,6.12323e-17,-0.00943585,817.114)">
        <path d="M809.4,467.1C809.3,433.5 809.3,399.8 809.2,366.2C809.2,364.3 810.6,362.5 812.5,362C813.3,402.4 813.5,442.7 813.2,483.1C809.6,478.8 809.4,472.7 809.4,467.1" style="fill-rule:nonzero;"/>
    </g>
    <g transform="matrix(6.12323e-17,-1,1,6.12323e-17,-0.00943585,817.114)">
        <path d="M810.4,537C813.2,538.2 813.7,541.9 813.7,544.9C814.8,623.4 815.9,701.8 817,780.3C817.1,788.2 817,796.7 812.3,803C805.6,811.9 792.9,812.7 781.8,812.7C626.1,813 470.5,813.2 314.9,813.5C321.7,809.8 329.9,809.7 337.7,809.7C469.6,809.4 601.6,809.2 733.5,809C735.9,809 738.6,808.9 740.4,807.2C751.7,810.2 763.8,809.7 774.8,805.9C784.8,812.3 799.8,808.9 806,798.8C805.2,800.2 805.9,802.3 807.4,803C812.3,793.3 812.4,782 812.3,771.2C811.7,693.2 811,615.1 810.4,537" style="fill-rule:nonzero;"/>
    </g>
    <g transform="matrix(6.12323e-17,-1,1,6.12323e-17,-0.00943585,817.114)">
        <path d="M207.5,11.6C196,8.6 184,8.8 172.1,9C124.2,9.9 76.3,10.8 28.4,11.6C22.8,11.7 16.8,12 12.4,15.5C6.7,20.2 6.2,28.7 6.1,36.1C5.7,145.4 5.2,254.6 4.8,363.8C3.2,256.2 1.7,148.6 0.1,41C0,31.8 0.2,21.6 6.4,14.8C13.2,7.4 24.4,6.8 34.4,6.7C281.8,4.5 529.2,2.3 776.6,0.1C786.2,0 796.9,0.4 803.6,7.2C810,13.7 810.4,23.8 810.5,32.9C811.6,139.7 812.7,246.5 813.7,353.3C621.6,244 429.5,134.7 237.4,25.4C227.8,20 218.1,14.5 207.5,11.6M405.4,52.1C405.7,51.1 406,50 405.7,48.9C402.6,52.9 399.5,56.8 396.4,60.7C398.6,61.5 401.1,60.3 402.6,58.5C404.1,56.7 404.8,54.4 405.4,52.1M352.3,75.4C351,74.6 349.7,73.8 348.4,72.9C348.3,77.6 355.3,80.3 358.5,76.9C356.5,76.3 354.6,75.6 352.7,75M381.3,92.9C378.2,90.2 374.6,88 370.7,86.5C369.8,86.1 368.5,85.9 368,86.8C371.9,89.8 376.5,91.9 381.3,92.9M388.4,65C387.2,64.4 385.9,63.8 384.7,63.2C383.5,64.6 382.4,66.1 381.2,67.6C382.6,68.5 384.6,68.2 385.7,67.1C386.1,68.1 386.4,69.1 386.7,70C387.2,68.5 387.6,67 388.1,65.5M365.2,85.9C366.9,85.6 368.6,85.1 370.1,84.5C369,84.5 368.2,83 368.8,82.1C367.8,81.7 367,83 366.6,84.1C366.3,83.1 366,82.1 365.7,81.1C364.9,81.9 363.6,81.8 362.9,80.9C362.7,81.9 362.5,82.8 362.2,83.7C363.2,84.4 364.1,85 365.1,85.7M413.9,32.5C414.2,31 414.6,29.6 414.9,28.2C413.5,27.5 412.1,26.8 410.6,26.1C409.8,26.7 410.7,27.9 411.3,28.6C411.9,29.4 411.1,31.1 410.5,30.3C411.3,31.6 412.6,32.6 414.1,33M517.8,75C517.3,75.9 519.3,75.4 519.3,74.4C519.4,71.8 517.3,69.2 514.7,68.8C513.6,69.1 514.8,70.7 515.8,71.4C516.7,72 516.2,74.3 515.5,73.3C516.2,73.9 516.9,74.5 517.6,75.1M468,93.2C468.8,92.8 468.1,91.7 467.4,91.2C466.5,90.7 465.7,90.1 464.9,89.6C464.4,88.8 463.7,90.5 464.3,91.3C465.5,93 466.8,94.8 468,96.6C469.2,96.1 469.3,94.1 468.1,93.5M308.1,51.5C309.3,50.9 309.6,49.1 308.7,48.1C306.6,48.2 304.5,48.3 302.4,48.3C303.7,50.2 305.9,51.4 308.2,51.6M469.7,40.9C470.9,41.2 472,42 472.7,43.1C473.8,41.7 473.4,39.4 471.9,38.5C470.4,37.6 468.2,38.2 467.4,39.8C468.1,40.3 468.9,40.8 469.6,41.2M423.1,106.7C424.1,105.9 425.1,105.2 426.1,104.4L416,104.4C417.8,106 420.3,106.8 422.7,106.4M368.6,41.9C369.2,42.1 368.9,40.9 368.3,40.7C365.9,39.9 363,41.4 362.1,43.8C364.4,44.1 366.8,43.5 368.7,42" style="fill-rule:nonzero;"/>
    </g>
</svg>
