<?xml version="1.0" encoding="UTF-8" standalone="no"?>
<!DOCTYPE svg PUBLIC "-//W3C//DTD SVG 1.1//EN" "http://www.w3.org/Graphics/SVG/1.1/DTD/svg11.dtd">
<svg width="100%" height="100%" viewBox="0 0 769 769" version="1.1" xmlns="http://www.w3.org/2000/svg" xmlns:xlink="http://www.w3.org/1999/xlink" xml:space="preserve" xmlns:serif="http://www.serif.com/" style="fill-rule:evenodd;clip-rule:evenodd;stroke-linejoin:round;stroke-miterlimit:2;">
    <g transform="matrix(6.12323e-17,-1,1,6.12323e-17,0.283138,768.701)">
        <path d="M11.7,107.5C23.6,69.9 51.8,38 87.2,20.6C128.2,0.6 175.6,0.2 221.2,0.1C329.5,0.1 437.7,0.1 545.9,0C593.3,0 642.8,0.5 684.8,22.3C718.5,39.9 745,71 756.9,107.1C766.7,136.6 766.9,168.2 767.1,199.2C767.6,318.6 768.2,437.9 768.7,557.3C768.9,596.2 768.9,636.4 754.3,672.5C737.6,713.7 701.6,746.7 659,759.7C630.5,768.5 600.1,768.5 570.2,768.4C448.1,768.3 326.1,768.1 204.1,767.9C169.2,767.8 133.5,767.6 100.8,755.7C57,739.7 21.6,702.1 8.4,657.4C0,629.2 0.1,599.2 0.3,569.8C1,444.1 1.8,318.4 2.6,192.7C2.7,164.1 3,134.9 11.7,107.5M548.8,254.6C545.6,252 541,251 537,252.2C536.7,250.8 536.5,249.3 536.3,247.9C538.8,248.1 541.4,248.3 544,248.6C542.4,235.6 523,234.3 515.7,223.5C520.8,218.2 526.2,212.8 533,210.3C542.1,206.9 552.1,209 561.5,211.2C562.3,206.3 556.5,201.7 552,203.6C560.2,198.9 570.2,199.1 579.6,200.2C591,201.5 602.2,203.9 613.2,207.2C611.9,209.6 608.2,210.5 605.9,208.9C609.1,212.2 614.2,213.3 618.5,211.7C620.3,213 622.2,214.3 624.1,215.6C634.2,223.1 643.3,232 651.1,242C652.9,244.3 653.8,248.9 650.8,249.2C652.3,249.5 653.8,249.8 655.3,250.2C655.3,253.8 657,257.3 659.7,259.6C659.9,261.6 657.8,263.6 655.8,263.1C657.9,264.9 660,266.6 662.1,268.3C663.1,276.8 663.6,285.3 663.7,293.7C661.9,292.4 660.1,291.1 658.3,289.8C656.9,290.9 655.4,292 654,293.2C655.7,295.7 660.3,295.4 661.7,292.6C661.7,294.5 662.4,296.3 663.7,297.6C660.6,297.3 657.5,298.8 655.7,301.3C658.5,301.5 661.4,301.7 664.3,301.9C666.1,304.1 664.1,308.1 661.2,307.9C662.7,310 664.2,312 665.7,314.1C664,316 661.4,317.1 658.9,317.1C661.4,317.8 663.2,320.6 662.8,323.2C659.5,323.6 656.2,323.9 652.8,324.3C655.5,324.5 658.3,324.8 661,325C664.1,332.1 664.6,340.4 662.4,347.8C663.6,350 664.7,352.2 665.9,354.4C663.4,357.7 659.1,359.6 654.9,359.2C659.1,359.1 663.3,361 665.9,364.3C664.6,368.4 663.4,372.5 662.1,376.6C663.2,377.4 664.3,378.2 665.4,379C663.6,388.3 663.2,397.8 664.3,407.2C662.8,407.9 661.3,408.6 659.8,409.3C662.4,409.8 664.8,411.7 665.8,414.2C664.3,416.1 662.2,417.5 659.8,418.2C661.3,418.5 662.7,418.8 664.1,419.1C663.9,422 661.8,424.7 659,425.5C661.6,425.4 664.3,427 665.4,429.3C659.8,432.2 653.2,433 647.1,431.7C651.3,434.5 657,435.1 661.7,433.2C663.3,435.4 664.2,438 664.3,440.6C659.1,440.8 654,441 648.8,441.2C652.2,441.4 655.6,441.6 658.9,441.8C659.2,440.4 656.3,441.2 656.8,442.6C657.3,443.9 659.1,444.1 660.5,444C662,443.9 663.8,443.9 664.5,445.1C664,449 663.6,452.9 663.1,456.8C664.9,464.6 664.6,472.7 662.3,480.3C663.5,482 664.7,483.6 665.9,485.2C664.3,485.5 662.7,485.8 661.1,486.1C662.4,488.1 663.6,490.2 664.9,492.2C663.8,493.8 662.7,495.4 661.6,496.9C659.9,502.2 658.1,507.5 656.4,512.7C656.4,514.8 654,516.5 652,515.9C653,517.2 654.1,518.5 655.2,519.9C649.2,527.4 642.4,534.1 634.8,539.9C636.2,539.3 637.3,541.7 636.4,543C635.5,544.2 633.7,544.5 632.2,544.7C624.7,545.9 617.6,549.6 612.3,555.1C605.8,561.9 595.6,565 586.4,562.9C575.8,568 562.7,567.1 552.9,560.7C552,562.1 549.9,561.7 548.4,561.2C517.8,550.4 493.7,522.9 487.2,491.1C484.1,504.2 489.5,517.9 497.1,528.9C517.5,558.6 555.2,575.5 590.7,570C626.3,564.6 657.5,536.5 665.8,501.5C668.9,488.2 669,474.3 669,460.6L669,304.3C669,293.5 669,282.6 667.2,271.9C660.8,235.5 630.6,204.4 594.4,196.8C558.1,189.2 518.1,205.7 497.6,236.6C489.3,249.2 484,264.1 484.6,279.2C487.3,278.6 490.1,277.9 492.8,277.2C490.6,277 488.4,276.8 486.2,276.6C487.9,274.6 489.5,272.5 491.2,270.5C489.3,268.4 489.4,264.8 491.3,262.7C497.8,263.3 504.2,265.7 509.5,269.7C516.1,265.6 524.6,264.6 532,267C530.3,269.8 527.7,272 524.6,273.2C527,275.3 530.6,275.8 533.4,274.5C534.2,280 540,284.3 545.5,283.4C544.7,279.1 540.2,275.8 535.9,276.4C538.2,275.8 540.5,275.2 542.9,274.5C540.3,272.4 536.2,272.2 533.4,274.1C530.8,271.8 534.3,267.8 537.5,266.2C544.4,262.7 554,259.6 559.1,265.5C554,266.3 555.6,274.8 560.3,277.1C565,279.3 570.8,278.7 575.1,281.7C569.7,283.9 578.3,296.3 572.4,296.9C566.2,297.6 560.2,299.9 555.1,303.5C561.8,306.1 569.2,307 576.3,306C578.5,305.7 578.6,309.7 576.5,310.5C574.5,311.4 572.2,310.3 570.1,309.8C567.9,309.3 565,309.8 564.6,312C566.8,315 565.2,320 561.7,321.1C564.4,322.9 567.1,324.7 569.8,326.4C567.5,327.1 565.2,327.7 563,328.3C563.6,331.4 565.3,334.2 567.7,336.3C565.9,337.8 564,339.4 562.1,341C563.7,344.9 563.9,349.4 562.6,353.4C567,354 571.4,354.5 575.8,355.1C580,351.5 585.8,349.8 591.3,350.5C590.8,354.1 590.4,357.7 590,361.3C592.1,361 594.3,360.8 596.5,360.6C593.3,357.2 597.2,352 601,349.2C594.3,348.9 588.1,344.2 586,337.9C590.7,333.7 597.3,331.8 603.5,332.8C603.2,327.4 602.9,321.9 602.5,316.4C603.2,313.3 607.7,312 609.9,314.2C608.1,316.1 606.4,318 604.6,319.9C610.6,322.1 617.5,321.5 623,318.4C622.1,312 621.3,305.6 620.5,299.3C618.3,297.8 615.7,297.3 613.2,297.8C613.3,293.5 613.4,289.3 613.5,285C610.3,285.5 607.1,286 603.9,286.5C609.9,280.4 618.3,276.6 626.8,276.2C624.5,274.7 625.5,270.3 628.3,270.1C624.7,265.2 620,261.2 614.7,258.3C615.4,254.6 618.5,251.5 622.3,250.7C625.1,254.8 632,255.2 635.3,251.5C628.3,251.5 621.6,246.5 619.5,239.8C617.4,233.1 620.1,225.1 625.8,221.1C622.4,221.9 618.6,221 615.8,218.7C611.9,221.5 607.1,223.2 602.3,223.6C602.2,220.6 599.4,218 596.4,218.2C594.5,214.9 593.9,208.9 597.7,209C594.1,209 590.5,209 586.8,209.1C588.5,209.5 590.3,210 592,210.4C592.1,209 589.9,210.5 589.9,211.9C590,216.2 590.1,220.5 590.1,224.8C588.8,224.7 587.4,224.6 586,224.6C587.3,222.7 587.7,220.3 587.2,218.1C581.3,219.1 575,218 569.7,215C570.2,216.7 569.2,218.8 567.4,219.3C559.6,217.8 551.4,218.1 543.7,220.3C545.4,221.2 547,222.2 548.7,223.2C548.7,225.5 546.6,227.7 544.2,227.7C547.7,230.7 547.1,236.1 546.1,240.5C549.3,234.3 555.2,229.6 562,227.8C567.9,226.2 576.7,230.2 574.4,235.9C570.6,234 566,234.1 562.3,236.1C564.2,244.1 555.9,250.5 548.8,254.6M487.7,329.1C487.1,327.2 484.2,326.7 483,328.2C482.4,322.7 482.1,317.2 482.3,311.6C485.3,312 488.5,310.7 490.4,308.2C488.4,306.2 484.6,306.2 482.6,308.2C483.2,301.3 484.4,294.4 485.9,287.6C482.2,287.4 481.1,282.7 480.7,279.1C476.4,240.2 445.2,205.8 406.9,197.7C368.6,189.7 326.2,208.5 306.5,242.3C300,253.6 295.8,266.8 297.4,279.7C301.6,312.1 301.4,345.1 296.9,377.4C296.4,355.2 296,333 295.5,310.8C295.2,294.9 294.9,278.9 290.6,263.6C278.9,221.7 235.3,191.2 192,194.6C148.7,198 110.4,235 105.4,278.2C100.5,321.4 129.4,366 170.8,379.2C189.9,385.2 210.3,385.1 230.3,384.9C279.3,384.4 328.4,383.9 377.3,380.5C383.2,380 389.1,379.6 395,380.3C425.4,384.2 456.2,384.8 486.7,382.2C480.8,373.9 480.3,362.2 485.4,353.4C480.6,346 481.6,335.4 487.7,329.1M349.8,391.6C310.2,408.9 286.2,455.9 295.2,498.1C304.2,540.3 345.4,573.3 388.5,572.9C431.7,572.5 472.2,538.8 480.5,496.4C488.8,454.1 463.9,407.6 424.1,391C416.7,387.9 409,385.8 401.2,384.1C395.2,382.8 389,381.8 382.9,382.7C371.6,384.4 360.3,387 349.8,391.6M490.5,411C489.5,410.8 488.5,410.1 487.9,409.3C488.6,407.3 490.8,406.1 492.8,406.5C491.8,405.7 490.4,405.4 489.2,405.8C489.3,404.3 488.4,402.8 487.1,402.3C487.9,400.2 488.7,398.1 489.5,396C488.4,396.3 488.7,393.9 489.7,394.4C488.2,393.9 487.1,392.7 486.7,391.2C487.6,390.9 488.6,390.6 489.5,390.3C488.9,387.3 485.9,385 482.9,385.1C482.8,402.3 482.8,419.5 482.7,436.7C482.7,444.1 482.7,451.7 485,458.8C485.6,456.8 488.5,457.3 490.6,457.7C492.6,458.1 495.7,456.3 494.3,454.8C492,454.7 489.7,454.7 487.3,454.7C486.2,454.6 486.8,452.8 487.6,451.9C488.3,451.1 488.4,449.1 487.3,449.4C488,448 488.8,446.6 489.5,445.3C488,444.5 488.3,441.9 489.9,441.4C488.3,440.7 487.1,439 486.9,437.3C488,436.3 489.1,435.3 490.2,434.3C489.7,433 489.2,431.7 488.8,430.5C488.4,429.5 488.9,427.7 489.8,428.3C488.9,428 488,427.6 487.1,427.3C487.7,424.9 488.3,422.5 488.9,420.2C488.1,417.1 488.7,413.6 490.5,411M623.9,327.2C621.1,327.2 618.4,327.1 615.6,327.1C613.9,327.1 612.2,327 610.5,327C609.6,329.5 612,332.2 614.6,332.5C617.2,332.8 619.8,331.5 622,330.2C622.7,329.2 623.3,328.2 623.9,327.2M623.3,284.8C622.7,282.8 620.5,281.6 618.6,282C615.2,284.4 616.3,290.6 620.3,291.7C623,290.7 624.5,287.3 623.5,284.7M513,276C515.9,275.4 518.8,274.8 521.7,274.2C519.9,270 513.2,269.4 510.6,273.1C511.3,273.8 512.1,274.5 512.8,275.2M577.1,363.4C579,362.6 579,359.5 577.4,358.2C575.7,356.9 573.3,357.1 571.5,358C569.9,358.7 571.3,361.3 573,361.7C574.7,362.1 576.9,362.1 577.6,363.7M537.4,359.3C534.3,358.6 531.1,358.5 528.1,358.9C530.6,363.1 536.9,364.4 540.8,361.4C537.4,361.1 534,360.8 530.6,360.5C532.9,360.1 535.1,359.7 537.4,359.3M549.8,246.4C548.2,246.6 546.5,246.9 544.8,247.2C547.8,248.3 551.1,248.8 554.3,248.8C554.8,247.9 555.3,247 555.9,246.1C554.1,245.1 552.3,244.3 550.3,243.8C550.3,244.6 550.2,245.5 550.1,246.3M616.2,433.8C615.6,431.8 613.7,430.2 611.7,430.1C612.6,431.5 613.5,432.9 614.4,434.4C617.9,435.6 621.5,436.8 625.1,438C623.4,435 619.8,433.3 616.4,433.8M554.2,317.3C555.7,317 557.2,316.7 558.8,316.3C556.4,314.9 553.4,314.4 550.7,315C549.4,316.8 547,317.7 544.9,317.1C547.9,317.9 551.2,318.1 554.3,317.7M646.9,318.2C648.4,319.4 650.4,320 652.4,319.8C652.9,318.6 653.1,317.2 652.8,315.9C649.4,316 646.1,316.5 642.8,317.2C644.1,317.6 645.5,317.9 646.8,318.3M563.8,292.2C563.5,293.8 564.8,295.4 566.3,295.5C568.3,294.9 570,293.2 570.7,291.2C569.9,290.8 569.1,290.3 568.3,289.8C566.8,290.6 565.3,291.4 563.8,292.2M568.4,209.1C570,208.9 571.7,208.7 573.3,208.5C574.2,208.1 574.8,207.1 574.8,206.2C572,206 569.1,205.8 566.3,205.7C565.5,207 566.8,209 568.3,208.7M600.8,404.2C607.5,405.3 614.4,405.1 621.1,403.8C614.3,403.3 607.5,403.4 600.8,404.2M643.2,266.1C645.3,266.7 647.4,267.2 649.5,267.7C649.5,265.6 649,263.4 648.1,261.4C646.7,262.8 645.4,264.1 644,265.4M569.5,458.8C571.4,459.8 573.4,460.4 575.5,460.6C575.3,459.2 576.7,457.7 578.1,457.9C577.3,457.3 576.4,456.6 575.5,456C573.6,456.7 571.7,457.3 569.7,458M585.4,550.9C584.4,550.3 583.5,552.2 584.4,553C585.2,553.8 586.6,553.6 587.7,553.5C588.8,553.3 590.3,553.5 590.8,554.5C590.7,552.9 590.6,551.4 590.6,549.8C588.9,550.2 587.1,550.6 585.4,551M539.2,212.9C536.2,213.3 533.2,213.6 530.3,214C530.6,214.9 530.9,215.7 531.2,216.6C534.4,215.7 537.6,214.8 540.8,214C541.2,213.3 540,212.8 539.2,212.9M534.3,370.8C531.5,370.5 528.6,370.7 525.8,371.3C530.1,372.1 534.5,372.1 538.8,371.2C537.4,371.5 536,370 536.3,368.6C534.1,368.8 531.9,368.9 529.8,369.1C531.3,369.4 532.9,369.8 534.4,370.2M622.3,397.9C623.9,397.3 626.4,398.6 625.3,399.8C626.5,399 627.6,398.1 628.7,397.3C625.1,395.4 620.6,395.1 616.7,396.5C618.6,396.9 620.5,397.3 622.3,397.7M555.3,446.7C557.5,447.1 559.8,446.9 561.9,446.1C558.4,445.4 554.8,444.6 551.3,443.8C550.6,444.6 550.6,446 551.3,446.8C552.7,446.8 554,446.7 555.3,446.7M635.3,299.8C634.7,298.7 633.6,297.9 632.4,297.7L632.4,300.6C630.9,300.8 629.4,301 627.8,301.2C631.5,302.3 635.5,302.2 639.1,300.8C637.8,300.5 636.6,300.1 635.3,299.7M512.3,358.8C509.4,358.5 505.6,358.8 504.9,361.7C508.7,361.5 512.4,360.6 515.8,359C514.6,358.9 513.5,358.8 512.3,358.6M627.7,349.2C627.8,347.5 625.6,346.1 624.1,346.9C622.5,347.7 622.4,350.3 623.9,351.2C625.4,352.2 627.7,351 627.7,349.2M589.9,453.8C586.7,452 582.7,452.1 579.6,453.9C582.8,454.3 586.1,454.6 589.3,455M642.1,490.9C644.7,492.8 648.8,491.8 650.3,489C648.6,489.7 646.6,489.4 645.2,488.3C643.9,489.1 642.7,489.9 641.4,490.7M506.5,283C508.5,282.3 511.8,282.6 511.5,284.7C512.6,284.9 513.9,284.6 514.5,283.6C515.1,282.7 514.5,281.1 513.3,281.1C511,281.4 508.6,281.7 506.2,282M545.2,271.7C544.9,272.7 544.6,273.7 544.3,274.7C546.4,274.9 548.6,274.8 550.8,274.4C550.3,273.5 549.8,272.6 549.3,271.7L545.3,271.7M555.6,432.5C553.2,430.3 550,429 546.8,428.8C547.8,429.4 548.8,429.9 549.8,430.5C549,430.2 548.5,431.5 549,432.1C549.5,432.7 550.4,432.8 551.2,432.8C552.7,432.9 554.2,432.9 555.7,433M636.4,361.6C639.3,363.3 643.2,363.4 646.1,361.7C642,361.4 638,361 633.9,360.7C634.2,361.6 635.4,362.1 636.2,361.7" style="fill-rule:nonzero;"/>
    </g>
    <g transform="matrix(6.12323e-17,-1,1,6.12323e-17,0.283138,768.701)">
        <path d="M590.4,310.3C590.5,312.1 590.6,313.9 590.7,315.7C588.4,316.1 585.8,314.6 585.1,312.4C586.5,310.7 588.7,309.7 590.9,309.8" style="fill-rule:nonzero;"/>
    </g>
    <g transform="matrix(6.12323e-17,-1,1,6.12323e-17,0.283138,768.701)">
        <path d="M575.7,316.1C575.3,317 574.8,317.8 574.4,318.6C571.5,317.8 568.9,316.3 566.8,314.3C569.8,313 573.6,313.8 575.8,316.2" style="fill-rule:nonzero;"/>
    </g>
    <g transform="matrix(6.12323e-17,-1,1,6.12323e-17,0.283138,768.701)">
        <path d="M587.8,323.2C584.1,324.9 579.5,324.9 575.8,323.1C579.8,322.5 583.9,322.5 587.8,323.2" style="fill-rule:nonzero;"/>
    </g>
    <g transform="matrix(6.12323e-17,-1,1,6.12323e-17,0.283138,768.701)">
        <path d="M514.3,233.7C513.7,232.4 513,231.1 512.3,229.7C511.1,230 509.9,229.8 508.8,229.3C509.7,228.4 510.5,227.5 511.4,226.7C514.3,229.2 517.4,231.5 520.8,233.3L520.8,237.4C519,237.6 517,237.4 515.3,236.7C515,235.7 514.7,234.7 514.4,233.7" style="fill-rule:nonzero;"/>
    </g>
    <g transform="matrix(6.12323e-17,-1,1,6.12323e-17,0.283138,768.701)">
        <path d="M507.6,237.9C505.9,238.2 504.2,238.6 502.5,238.9C500.9,237.3 503,234.4 505.3,234.4C507.5,234.3 509.5,235.9 511.4,237.1C514.7,239 518.5,240.1 522.3,240.1C518.5,243.7 512.2,244.2 507.9,241.2C507.8,240.1 507.7,239 507.6,237.9" style="fill-rule:nonzero;"/>
    </g>
</svg>
