<?xml version="1.0" encoding="UTF-8" standalone="no"?>
<!DOCTYPE svg PUBLIC "-//W3C//DTD SVG 1.1//EN" "http://www.w3.org/Graphics/SVG/1.1/DTD/svg11.dtd">
<svg width="100%" height="100%" viewBox="0 0 830 823" version="1.1" xmlns="http://www.w3.org/2000/svg" xmlns:xlink="http://www.w3.org/1999/xlink" xml:space="preserve" xmlns:serif="http://www.serif.com/" style="fill-rule:evenodd;clip-rule:evenodd;stroke-linejoin:round;stroke-miterlimit:2;">
    <g transform="matrix(6.12323e-17,-1,1,6.12323e-17,1.67663,824.577)">
        <path d="M823.5,36.8C823.1,144 822.8,251.2 822.5,358.3C805.5,341 776.5,352.3 755.5,364.5C652.6,424.2 549.6,483.9 446.7,543.6C558.6,608.4 670.4,673.2 782.3,737.9C795.5,745.6 809,753.5 817.9,765.9C826.8,778.2 829.7,796.2 820.6,808.4C810.5,821.8 791.3,822.9 774.5,822.9C740.1,822.9 705.7,822.8 671.4,822.7C457.4,822.4 243.4,822 29.5,821.7C22.7,821.6 15.5,821.5 10,817.7C0.8,811.5 0,798.6 0.1,787.5C1.8,536 3.6,284.4 5.3,32.8C5.4,23.4 5.9,12.9 12.7,6.5C19.2,0.3 29.1,0 38,0C288.8,1.2 539.7,2.3 790.6,3.4C799.7,3.5 809.9,3.9 816.4,10.3C823.1,16.9 823.5,27.4 823.5,36.8M10.2,217.5C10.1,219.6 10,221.8 9.8,223.9C13,224.1 16.2,224.3 19.3,224.4C16.5,224.7 13.8,225 11,225.3C8.3,227.5 9.6,232.8 13.1,233.5C11.1,234.9 9.1,236.2 7.1,237.5C7.4,240.9 10,243.9 13.3,244.5C10.8,243.7 9.5,247.5 9.5,250.1C9.6,266 9.6,281.9 9.7,297.7C11.6,299 13.5,300.2 15.3,301.5C13,302.2 10.7,302.9 8.3,303.5C8.9,304.9 9.8,306.2 11,307.2C9.4,319.9 8.6,332.6 8.5,345.4C8.5,349.4 9.3,354.5 13.2,355.5C11.6,354.1 9.6,356.9 9.4,359.1C7.5,373.6 8.1,388.4 11,402.7C9.9,403.9 8.7,405.2 7.6,406.4C7,410.1 9,414.1 12.2,416C10.9,417.1 9.6,418.3 8.3,419.4C8.6,423.8 8.8,428.2 9,432.5C9.4,439.6 9.9,446.7 10.3,453.7C9.5,454.6 8.7,455.5 7.8,456.3C8.7,461.6 9.6,466.8 10.4,472C9.4,473.5 8.4,475 7.4,476.6C9.9,476.3 12.5,478.1 13.1,480.6C11.3,481.2 9.5,481.9 7.7,482.5C8.3,486.9 7.7,491.4 5.9,495.4C131.9,423.5 257.8,351.6 383.7,279.7C258.7,206.9 133.7,134.2 8.7,61.5C5.6,64.1 8.2,70.3 12.2,70C9.3,70.9 9.8,75.6 12.4,77C15,78.5 18.2,77.8 21.1,77.1C18.6,79.3 14.8,80 11.7,78.8C11.7,81.6 10.6,84.3 8.7,86.3C14.3,83.9 20.6,83.4 26.5,84.9C20.4,86.5 14.2,88.1 8.1,89.7C9.5,92.4 12.3,94.3 15.3,94.6C12.8,95 10.5,96.6 9.2,98.8C12.3,99.6 15.4,100.4 18.5,101.2C14.5,101 10.4,102.7 7.8,105.7C10.3,107.4 12.8,109 15.3,110.7C11.2,108.9 7.3,116.3 11.2,118.7C10.2,119.9 9.2,121.2 8.2,122.4C10.9,122.8 13.6,123.2 16.3,123.6C12.6,124.3 9.2,126 6.3,128.5C8.4,130.5 11.3,131.6 14.2,131.4C11.6,133.3 8.9,135.1 6.3,136.9C13.5,138.1 20.9,138.5 28.3,138.2C21.2,139.6 14.2,141 7.2,142.3C7.9,146.1 11.4,149.3 15.3,149.7C12.8,149.4 10.3,150 8.2,151.3C7.8,153.4 10,155.2 12.1,155.4C8.8,158.5 7.5,163.6 8.9,167.9C9.7,170.2 10.6,172.5 11.4,174.8C10.6,185 9.8,195.2 9,205.4C5.6,210.8 13,218.7 18.6,215.7C15.8,216.3 13,216.9 10.2,217.5M116.5,816.9C117.3,815.3 118,813.7 118.8,812.1C119.4,813.4 120,814.8 120.7,816.2C125.8,817.6 131.6,816.5 135.9,813.3C136.3,815.2 138,816.8 140,817.1C141.9,815.7 143.2,813.5 143.5,811.1C145.9,816.8 154.5,818.6 158.9,814.3C166.5,816.2 174.5,816.1 182,813.9C181.9,815.8 184.5,816.6 186.4,816.7C193.5,817.3 202,817.2 205.8,811.2C206.4,812.9 207,814.7 207.7,816.5C221.8,816.7 236,815.6 250,813.3C249.4,812.5 248,813.8 248.4,814.7C248.9,815.7 250,815.9 251.1,816.1C256.3,816.7 261.7,816.7 267,816C267,813.7 267.1,811.4 267.1,809.1C268.2,807.2 269.5,805.5 271.1,804C267.9,810.7 273.8,819.9 281.2,819.7C281.9,670.9 282.6,522.2 283.3,373.5C193.3,425.3 103.3,477 13.3,528.7C9.1,531.1 4.4,535.3 6.4,539.6C8.3,539.8 10,540.9 11.1,542.4C7.8,547 6.7,553.1 8.2,558.5C8.2,564.9 8.8,571.2 9.9,577.5C7.3,580.7 7.5,585.8 10.3,588.8C7.8,589 7.1,592.3 7.1,594.8C7.1,613.2 7.6,631.5 8.5,649.8C4,668.1 4.9,687.7 11.1,705.5C10.3,706.7 9.4,707.9 8.6,709.1C8,706.5 7.4,703.8 6.8,701.2C6.3,729.3 5.8,757.4 5.4,785.4C5.2,797 6.7,811.4 17.5,815.7C20.9,817 24.7,817 28.4,817C51.5,816.8 74.7,816.6 97.9,816.4C96.8,814.6 95.8,812.9 94.7,811.1C101.3,815 108.9,817 116.5,816.9M766.4,817C782,818.9 797.8,818.3 813.2,815.3C812.5,813 811.8,810.7 811,808.3C811.9,804.5 818.7,804.4 819.3,800.5C819.8,798 817.2,796.1 815,794.8C648.3,697.8 481.6,600.8 314.9,503.8C314.6,609 314.3,714.3 314,819.6C354.9,815.9 396.1,815.2 437.1,817.7C451.5,818.6 466.4,819.7 479.8,814.4C480.7,816.6 483.3,819.1 484.9,817.3C574.2,818.7 663.5,819 752.8,818.2C756.9,818.2 762.1,817.3 762.9,813.3C764.1,814.5 765.3,815.8 766.4,817M515.5,189.5C515.5,186.5 515.5,183.2 514,180.5C512.5,177.8 509.6,176 506.8,174.4C412.6,119.6 318.4,64.8 224.2,9.9C216.4,5.4 206.8,5.3 197.8,5.3C146,5.2 94.2,5.1 42.3,5.1C31.6,5 19.1,5.8 12.8,14.5C10,18.3 9.4,24.7 13.5,27.2C180.5,124.7 347.6,222 514.9,319C515.1,275.9 515.3,232.7 515.5,189.5M515,439.8C515.2,421.1 515.3,402.4 515.4,383.8C515.5,376.3 515.5,368.5 512.3,361.7C508,352.5 498.8,346.8 490,341.7C474.2,332.3 458.3,323 442.4,313.6C434,308.7 425,303.6 415.2,303.6C405.9,303.7 397.4,308.5 389.4,313.1C373.4,322.3 357.3,331.5 341.3,340.7C332.4,345.7 323.1,351.4 318.7,360.6C315.5,367.3 315.4,374.9 315.4,382.3C315.3,400.4 315.2,418.6 315.1,436.7C315.1,447.1 315.2,458.1 321.1,466.7C325.4,472.8 332.1,476.8 338.6,480.6C356.5,490.9 374.3,501.3 392.2,511.7C398,515 404,518.4 410.6,519.3C421.7,520.7 432.2,514.9 441.8,509.3C458.6,499.5 475.5,489.6 492.4,479.8C499.1,475.9 506.1,471.7 510.2,465C514.8,457.6 515,448.4 515,439.8M547.8,198.9C547.3,267.5 546.8,336.1 546.3,404.7C546.2,419.5 546,434.3 546.8,449.1C611.6,411.5 676.4,374 741.3,336.5C749.2,331.9 757.4,327.2 766.5,325.8C693.6,283.5 620.7,241.2 547.8,198.9" style="fill-rule:nonzero;"/>
    </g>
    <path d="M80.8,238" style="fill:none;fill-rule:nonzero;"/>
    <path d="M134.5,165.1C133.9,168.2 129,169.1 127.4,166.5C129.2,165.1 131.6,164.6 133.8,165.1" style="fill-rule:nonzero;"/>
    <path d="M378.3,381.5C377.3,381.6 378.2,379.9 379.2,379.6C381.3,378.9 384.8,379.4 384.3,381.6C382.4,382.3 380.2,382.3 378.3,381.5" style="fill-rule:nonzero;"/>
    <path d="M36.4,439.9C37.7,438.5 40,440.1 41.2,441.7C39,442.1 36.9,442.6 34.8,443.1C34.3,442.3 34.2,441.4 34.3,440.5C35,440.1 36,439.9 36.8,440.1" style="fill-rule:nonzero;"/>
    <path d="M314.3,253.5C313,252.8 311.9,251.8 311.1,250.5C313.7,249.4 317.1,250.9 318.1,253.6C316.9,254.3 315.4,254.3 314.3,253.5" style="fill-rule:nonzero;"/>
    <path d="M465.3,247.5C464.3,247.9 465.3,249.8 466.2,249.2C465.6,250.7 463.7,251.5 462.2,250.9C460.8,250.2 460,248.3 460.7,246.9C462.2,247 463.8,247.2 465.3,247.4" style="fill-rule:nonzero;"/>
    <path d="M472,279.5C470,280.1 467.7,279.8 465.9,278.8C465.3,278.2 465.1,277.2 465.3,276.4C467.8,276.3 470.2,277.2 472.1,278.7" style="fill-rule:nonzero;"/>
    <path d="M334.8,386L329.8,386C329.3,385.2 329.1,384.2 329.3,383.2C332,383.1 334.8,383.5 337.3,384.5C336.7,385.3 335.8,385.9 334.8,386" style="fill-rule:nonzero;"/>
    <path d="M105.4,626.4C104.5,626.9 103.7,627.5 102.9,628.1C101.8,626.8 101.2,625 101.3,623.3L105.9,623.3C106.6,624.4 106.6,626 105.8,627" style="fill-rule:nonzero;"/>
    <path d="M59.3,106.5C60.6,107.2 60.3,109.5 58.8,109.8C57,109.2 55.2,108.6 53.4,108C55,106.1 58.3,104.3 59.4,106.5" style="fill-rule:nonzero;"/>
    <path d="M64.8,233.1C63.3,233 61.8,232 61.3,230.6C63.4,229 66.6,229.2 68.6,230.9C67.4,231.6 66.1,232.3 64.8,232.9" style="fill-rule:nonzero;"/>
    <path d="M63.8,318.7C63.5,319.2 62.8,318.4 63.1,318C63.5,317.5 64.2,317.6 64.7,317.5C66.1,317.4 67.4,316.4 68.8,316.2C70.2,316 71.9,317.4 71.2,318.6C68.8,319.1 66.3,319.3 63.8,319" style="fill-rule:nonzero;"/>
    <path d="M165.7,226C162.8,227.8 158.9,227.7 156.1,225.8C159.1,224.8 162.3,224.7 165.3,225.5" style="fill-rule:nonzero;"/>
    <path d="M125.2,221.4C122.7,222.8 119.2,222.4 117.1,220.3C119.7,220 122.4,219.7 125,219.4C125.2,220.1 125.3,220.8 125.4,221.5" style="fill-rule:nonzero;"/>
    <path d="M132.6,194.3C133.5,195.5 134.4,196.7 135.3,197.9C133.5,198.5 131.2,198.8 130,197.3C128.8,195.8 131.3,193.2 132.3,194.8" style="fill-rule:nonzero;"/>
    <path d="M388.1,228.2C387.6,229 387.2,229.9 386.8,230.7C384.8,231.5 382.3,230.7 381.1,228.8C383,227.4 385.6,226.9 387.9,227.5" style="fill-rule:nonzero;"/>
    <path d="M56.8,37L52.8,37C52.3,36.4 52.2,35.4 52.4,34.6C54,33.7 55.8,33.2 57.7,32.9C57.5,34.3 57.4,35.7 57.2,37" style="fill-rule:nonzero;"/>
    <path d="M500.8,256.2C498.9,256 497.1,255.8 495.2,255.5C498.1,253.3 502.5,253.4 505.3,255.7C503.8,255.9 502.3,256 500.8,256.1" style="fill-rule:nonzero;"/>
    <path d="M389.8,397.1C386.9,397.2 384,396.6 381.3,395.3C384.5,395 387.6,394.9 390.8,395.1C391.6,395.7 390.8,397.3 389.8,397" style="fill-rule:nonzero;"/>
    <path d="M343.6,351.3C346.5,350.8 349.5,350.3 352.4,349.9C350.5,352.2 347.3,353.3 344.3,352.7" style="fill-rule:nonzero;"/>
    <path d="M342.7,359.8C341,360.3 338.3,360.2 338.3,358.4C340.8,358.3 343.3,358.1 345.8,357.9C346.5,358.8 346.6,360.2 345.8,361.1C345.2,360.1 343.9,359.7 342.9,360.1" style="fill-rule:nonzero;"/>
    <path d="M150.1,681C150.5,684 150,687.2 148.8,690C148,688.5 147.2,687.1 146.4,685.6C147.4,684 148.4,682.4 149.5,680.8" style="fill-rule:nonzero;"/>
    <path d="M257.7,281.5C260.4,280.9 263.3,281.2 265.8,282.5C266.6,282.2 266.1,283.8 265.3,284C262.5,284.7 259.5,284.3 257,282.9" style="fill-rule:nonzero;"/>
    <path d="M171.8,203.9C170.4,204.3 168.2,204 168.3,202.6C172,201.4 176.1,201.6 179.5,203.3C177.1,204.1 174.4,204.4 171.8,204" style="fill-rule:nonzero;"/>
    <path d="M274.7,229.9C272.2,230.7 269.2,230.3 267,228.7C270.7,227.7 274.6,227.6 278.3,228.5C277.1,229 276,229.5 274.8,230" style="fill-rule:nonzero;"/>
    <path d="M20.8,170.9C17.8,171.3 14.5,171.6 12.2,169.6C14.6,168.8 17.2,168.4 19.7,168.6C20.4,168.7 21.3,168.8 21.6,169.5C22,170.1 21.3,171.2 20.7,170.8" style="fill-rule:nonzero;"/>
    <path d="M120.7,258.5C119.5,258.8 118.3,257.4 118.7,256.3C121.2,255.4 124,255.3 126.6,256.1C125.5,257.9 123.1,259 120.9,258.5" style="fill-rule:nonzero;"/>
    <path d="M53.2,255.8C52.2,255.5 51.3,255.1 50.3,254.8C51.5,252.4 54.8,251.2 57.2,252.5C56.1,253.7 55.1,255 54.1,256.2" style="fill-rule:nonzero;"/>
    <path d="M17.7,416C18.9,415.5 19.7,417.6 19,418.7C16.8,418.7 14.6,418.7 12.4,418.8C13,416.5 15.7,415 17.9,415.8" style="fill-rule:nonzero;"/>
    <path d="M16.3,469.4C14.7,470.8 11.8,469.9 11.3,467.8C14,467.2 16.8,467.4 19.3,468.5C18.7,469.5 17.4,469.9 16.3,469.4" style="fill-rule:nonzero;"/>
    <path d="M161.3,43.7C162.2,43.9 162.6,45.4 161.8,46C158.8,46.6 155.7,44.8 154.2,42.2C156.6,42.4 159,42.5 161.4,42.7" style="fill-rule:nonzero;"/>
    <path d="M138.5,32.4C138.9,32.3 138.5,33 138,33C135.1,32.4 132.1,31.9 129.2,31.4C131.8,29.9 134.9,29.5 137.9,30.1C138.1,30.9 138.3,31.7 138.5,32.5" style="fill-rule:nonzero;"/>
    <path d="M139.8,84C141,84.9 142.2,85.7 143.4,86.6C140.1,87.3 136.6,87.3 133.2,86.6C135.2,85.4 137.5,84.7 139.8,84.6" style="fill-rule:nonzero;"/>
    <path d="M244.3,145.6C240.9,146.4 237.4,146.3 234,145.5C237.1,143.6 241.3,143.6 244.3,145.6" style="fill-rule:nonzero;"/>
    <path d="M171.8,99.1C172.9,98.7 174.6,99.5 174.3,100.6C173.1,100.9 172,101.2 170.8,101.4C171.7,101.1 172.6,102.1 172.3,102.9C171.9,103.7 170.5,103.7 170.2,102.9C169.6,102.1 169,101.3 168.3,100.6C169,99.4 170.5,98.8 171.8,99.1" style="fill-rule:nonzero;"/>
    <path d="M379.8,373.9C377.2,374.7 374.3,374.2 372.1,372.6C375.8,371.7 379.7,371.7 383.5,372.5C383.2,373.9 381.2,374.7 380,373.8" style="fill-rule:nonzero;"/>
    <path d="M340.2,365.1C340.5,365.9 340.9,366.7 341.2,367.5C338.6,368.9 334.9,368 333.3,365.5C335.2,364.8 337.4,364.8 339.2,365.7" style="fill-rule:nonzero;"/>
    <path d="M355,393.2C357.4,391.4 361.2,391.5 363.5,393.5C359.8,394.3 356,394.3 352.3,393.6C353,393.1 353.9,392.8 354.8,393.1" style="fill-rule:nonzero;"/>
    <path d="M452.9,347.3C456,346.4 459.4,346.6 462.5,347.7C459.5,349.5 455.4,349.3 452.7,347.2" style="fill-rule:nonzero;"/>
    <path d="M42.8,636.1C43.5,637.2 42.7,638.6 41.5,639.1C40.3,639.6 39,639.3 37.8,639C35.9,638.7 34.1,638.3 32.2,637.9C35.5,636.2 39.2,635.5 42.8,636.1" style="fill-rule:nonzero;"/>
    <path d="M17.3,599.3C20.2,599.2 23,601 24.2,603.6C23.1,604.1 22,604.5 20.8,605C19.1,603.6 17.8,601.8 16.8,599.8" style="fill-rule:nonzero;"/>
    <path d="M143.9,735.3C142.9,736.7 140.6,736.7 139.5,735.3C138.4,734 139,731.7 140.6,731C140.8,732.8 143.3,733.9 144.7,732.8C144.4,733.6 144.2,734.5 143.9,735.3" style="fill-rule:nonzero;"/>
    <path d="M88.3,698.7C89.4,697.9 90.3,700.7 89,700.6C87.4,700.1 85.7,700.8 84,700.5C82.4,700.2 81.3,697.6 82.9,697C84.6,697.7 86.4,698.3 88.1,699" style="fill-rule:nonzero;"/>
    <path d="M185.3,700.4C186.1,700.3 186.2,698.8 185.3,698.6C186.2,698.1 187,697.6 187.8,697.1C189,699.6 189,702.6 187.8,705.1C186.9,703.6 186.1,702.1 185.2,700.6" style="fill-rule:nonzero;"/>
    <path d="M374.2,806.6C373.8,805.1 376.4,805.2 377.7,806.1C377.8,807.2 378,808.3 378.1,809.4C376.6,810.6 375.1,811.8 373.6,813C373.2,810.9 373.5,808.6 374.6,806.7" style="fill-rule:nonzero;"/>
    <path d="M786.4,802.5C786.5,803.3 785.6,804.1 784.8,804C784.4,802.6 782.8,801.6 781.4,801.8C784.2,800.5 787.3,799.9 790.3,800.2C789,801 787.7,801.7 786.3,802.5" style="fill-rule:nonzero;"/>
    <path d="M156.6,203.9C158.8,201.8 162.4,201.2 165.2,202.6C164.1,205.6 159.6,206.8 157.2,204.6" style="fill-rule:nonzero;"/>
    <path d="M23.7,280.9C26.4,280.7 29,282.2 30.4,284.5C28.2,284.6 26.1,284.7 23.9,284.9C22.6,284 22.5,281.8 23.8,281" style="fill-rule:nonzero;"/>
    <path d="M50.4,453.5C51.4,454.9 51.1,457 49.8,458.1C48.7,456.2 47.2,454.7 45.3,453.6C46.8,452.8 48.4,451.9 49.9,451.1C50.1,451.9 50.3,452.7 50.5,453.5" style="fill-rule:nonzero;"/>
    <path d="M119.8,199.1C117.7,198.8 115.4,199.5 113.8,200.9C113,199.8 112.1,198.7 111.3,197.6C114.2,196.3 117.7,196.7 120.3,198.4" style="fill-rule:nonzero;"/>
    <path d="M24.8,215.1C27.2,214.8 29.5,214.5 31.8,214.2C32.6,214.7 33.2,215.5 33.3,216.4C30.4,217.6 27,217.3 24.3,215.8" style="fill-rule:nonzero;"/>
    <path d="M177.8,189.2C176.3,188.7 175,187.7 174.3,186.3C176.1,186.4 177.9,186.4 179.7,186.2C180.7,187.7 182.6,188.6 184.3,188.4C182.3,189.2 180,189.4 177.8,189" style="fill-rule:nonzero;"/>
    <path d="M21.9,291.7C18.7,292 15.4,291.6 12.4,290.5C15.3,289.5 18.6,289.3 21.7,289.9C22.3,290 23.1,290.3 23.1,291C23.1,291.7 21.7,291.4 22.2,290.9" style="fill-rule:nonzero;"/>
    <path d="M393.8,184.2C391.9,184 390,183.7 388.2,183.5C390.7,181.9 393.9,181.4 396.8,182.2C396.4,183.2 397.3,184.4 398.3,184.4C397,185.4 394.9,185.3 393.8,184.1" style="fill-rule:nonzero;"/>
    <path d="M405.9,245.2C408.2,243.7 411.3,243.6 413.6,244.9C410.3,246.9 405.9,247.1 402.4,245.3C403.5,245.2 404.7,245.1 405.8,244.9" style="fill-rule:nonzero;"/>
    <path d="M410.1,208.1C410.2,207.2 410.2,206.2 410.3,205.3C412.7,205.7 415.2,205.3 417.3,204.2C416.7,206.8 413.5,208.4 411.1,207.4" style="fill-rule:nonzero;"/>
    <path d="M470.2,383.3C466.8,385.3 462,384.4 459.5,381.3C463.3,380.8 467.7,380.5 470.2,383.3" style="fill-rule:nonzero;"/>
    <path d="M401.9,357.2C404.2,356.8 407.1,356.5 408.5,358.4C405.3,359.8 401.6,359.9 398.3,358.6C399.5,358.1 400.7,357.7 401.9,357.3" style="fill-rule:nonzero;"/>
    <path d="M434.9,341.1C435.6,339.7 437.2,338.8 438.7,339C438.5,340.4 439.9,341.8 441.3,341.5C438,342.3 434.5,342.4 431.3,341.6C432.3,341 433.6,340.8 434.8,341.1" style="fill-rule:nonzero;"/>
    <path d="M43.6,653.8C43.8,655.7 40.7,656.2 39.5,654.8C38.4,653.3 38.6,651.2 38.9,649.4C39.9,649.7 41.1,649.6 42,649.1C42.3,650.8 42.6,652.4 42.8,654" style="fill-rule:nonzero;"/>
    <path d="M35.5,800.9C34.4,803.3 33.3,805.8 32.1,808.2C31.6,807.1 30.7,806.1 29.5,805.7C31.1,804 32.7,802.3 34.4,800.6" style="fill-rule:nonzero;"/>
    <path d="M164.6,698.8C163.8,696.4 162.9,693.9 162.1,691.4C164.5,693.5 167.2,696.5 166.2,699.5C165.7,700.1 165,700.8 164.2,700.7C163.4,700.6 163.1,699.1 163.9,699.1" style="fill-rule:nonzero;"/>
    <path d="M48,198.2C50.9,198.9 53.7,199.8 56.5,200.7C53.3,202.6 49.1,202.4 46.1,200.3C46.6,199.8 47.1,199.3 47.6,198.8" style="fill-rule:nonzero;"/>
    <path d="M46.3,117.5C44.9,116.9 43.8,115.7 43.2,114.3C46.1,114.6 49,114.5 51.8,113.9C52.5,114.8 52.6,116.3 51.8,117.1C50.8,116.7 49.7,116.3 48.7,115.9C48.9,117.1 47.4,118.3 46.2,117.7" style="fill-rule:nonzero;"/>
    <path d="M73.3,169.5C76,170.1 78.4,167 81.1,167.1C82.8,167.2 84.1,168.5 85.3,169.6C81.4,170.4 77.3,170.3 73.3,169.5" style="fill-rule:nonzero;"/>
    <path d="M289.4,274.6C293.5,273 298.1,272.6 302.5,273.5C298.4,275.4 293.7,275.7 289.4,274.6" style="fill-rule:nonzero;"/>
    <path d="M74.3,343.2C70.8,344.2 67.3,345.1 63.8,346C63.1,345.1 62.8,344.1 62.8,343C66.6,343.1 70.5,343.1 74.3,343.2" style="fill-rule:nonzero;"/>
    <path d="M115.9,150.7C118.4,151.1 120.9,151.5 123.4,151.9C119.5,153.2 115.2,153.2 111.2,152C112.5,151 114.2,150.6 115.8,151" style="fill-rule:nonzero;"/>
    <path d="M48.9,243.8C50,244.2 51.3,244.4 52.2,243.7C53.1,243 52.4,241 51.3,241.5C53.7,240.6 56.6,242.2 57.2,244.6C54.4,245.3 51.4,245.3 48.6,244.7" style="fill-rule:nonzero;"/>
    <path d="M65.2,236.4C62.4,237.4 59.7,238.3 56.9,239.2C56.4,238.3 55.9,237.4 55.3,236.4C58.6,235.8 62,235.8 65.2,236.4" style="fill-rule:nonzero;"/>
    <path d="M298.3,266.7C296.2,266.2 294.1,265.6 292.1,265.1C295.4,264.8 298.8,264.4 302.2,264.1C301.8,265.7 300,266.9 298.3,266.5" style="fill-rule:nonzero;"/>
    <path d="M162.8,196.1C160.3,196 157.8,195.9 155.3,195.8C159.5,194.4 164.1,194.1 168.5,194.9C166.9,196.1 164.7,196.5 162.8,196" style="fill-rule:nonzero;"/>
    <path d="M36.5,163.9C35.8,163.7 36.5,162.6 37.2,162.5C39.7,162 42.4,162.6 44.5,164.2C41.9,165.3 38.9,165.1 36.4,163.9" style="fill-rule:nonzero;"/>
    <path d="M151.1,86.9C153.7,84.6 157.4,83.6 160.8,84.2C161.6,84.7 161.6,86.1 160.9,86.6C157.6,86.7 154.4,86.8 151.1,86.9" style="fill-rule:nonzero;"/>
    <path d="M88.4,16.4C89.4,16.3 90.2,15.2 90.1,14.2C93.1,14.5 96.1,15.7 98.4,17.6C95.1,18.2 91.5,17.7 88.4,16.4" style="fill-rule:nonzero;"/>
    <path d="M395.5,167.8C392.1,167.8 388.8,168.5 385.7,169.8C385.5,169 385.4,168.3 385.3,167.5C388.6,166.6 392.2,166.7 395.5,167.8" style="fill-rule:nonzero;"/>
    <path d="M408.3,387.7C410.5,387.5 412.7,388.9 413.5,391C409.8,390.7 406.3,389.6 403.2,387.6C404.7,386.7 406.7,386.8 408,387.9" style="fill-rule:nonzero;"/>
    <path d="M107.4,567.5C106.8,566.7 108.5,565.8 109.2,566.5C109,568.8 108,571 106.3,572.7C107.7,572.7 108.7,574.3 108.3,575.5C107.6,576 106.7,576.2 105.9,576C104.5,573.3 105.1,569.7 107.5,567.7" style="fill-rule:nonzero;"/>
    <path d="M24.5,643.8C26.8,641 31,640.1 34.2,641.5C30.6,643.6 26.5,644.8 22.3,645.1C22.7,644.2 23.9,643.7 24.7,644.1" style="fill-rule:nonzero;"/>
    <path d="M16.8,152.2C18.8,151.8 21.7,152 21.9,154C21.8,152.9 23.1,151.9 24.2,152.3C23.7,153.4 23.3,154.5 22.9,155.6C21.9,155.7 20.9,155.8 20,155.9C18.6,156.1 17,156.2 15.9,155.2C14.9,154.3 15.4,152 16.8,152.1" style="fill-rule:nonzero;"/>
    <path d="M177.8,225.1C178.8,224.9 180.4,225.1 180.2,226.2C176.2,227.6 171.7,227.4 167.8,225.8C171.1,225.4 174.4,225.1 177.8,224.7" style="fill-rule:nonzero;"/>
    <path d="M84.2,230.7C83.2,230 81.6,230.1 80.8,231C80,230.4 79.4,229.4 79.3,228.4C81.5,228 83.7,227.6 85.8,227.2C86.7,228 87.5,228.8 88.3,229.6C87,229.9 85.7,230.2 84.3,230.6" style="fill-rule:nonzero;"/>
    <path d="M278.9,244.9C278.5,244.3 278.2,243.7 277.8,243.1C280.6,242.8 283.5,242.9 286.3,243.5C285.3,243.9 284.3,244.2 283.3,244.6C284.2,244.9 285.1,245.2 286,245.4C283.7,246.4 281,246.4 278.6,245.6" style="fill-rule:nonzero;"/>
    <path d="M148.8,250C145.6,250.4 142.3,250.1 139.2,249.3C143.4,248 147.9,247.7 152.3,248.4C151.1,248.9 149.9,249.3 148.7,249.8" style="fill-rule:nonzero;"/>
    <path d="M24.9,298.8C23.7,298.3 22.5,297.9 21.3,297.4C25.2,296.3 29.5,296.4 33.3,297.7C31,299.4 27.7,299.6 25.2,298.3" style="fill-rule:nonzero;"/>
    <path d="M16.9,255C15.7,253.8 17.4,251.7 19,251.5C20.7,251.2 22.5,251.8 24.1,251.2L24.1,253.8C21.8,253.1 19.1,253.8 17.3,255.5" style="fill-rule:nonzero;"/>
    <path d="M126.3,241.5C127.6,242.2 129,242.9 130.3,243.6C127.4,244.3 124.3,244.3 121.4,243.6C122.8,242.9 123.7,241 123.1,239.5C124.1,240.4 125.1,241.4 126.1,242.4" style="fill-rule:nonzero;"/>
    <path d="M276.9,325.8C276.4,328.2 273.1,329.3 271.2,327.8C274.1,325.5 277.8,324.2 281.4,324.2C281.4,325.8 279.3,326.7 278,325.8" style="fill-rule:nonzero;"/>
    <path d="M65.6,237.2C66,236.5 66.4,235.8 66.8,235.1C68.4,236.3 70.1,237.4 71.7,238.6C68.6,238.7 65.4,238.8 62.3,238.9C63.3,238.4 64.4,237.8 65.4,237.3" style="fill-rule:nonzero;"/>
    <path d="M124.7,76.6C127.2,76.9 129.7,77.1 132.3,77.4C131.8,78.3 131.3,79.1 130.8,80L121.8,80C120.5,78.5 122.7,75.6 124.6,76.5" style="fill-rule:nonzero;"/>
    <path d="M153,65.2C151.5,66.7 148.5,64.5 149.4,62.7C152.3,61.4 155.6,61.2 158.6,62.1C157.4,64 155.1,64.9 152.9,64.5" style="fill-rule:nonzero;"/>
    <path d="M404.8,229.3C407.6,229 410.4,228.7 413.2,228.3C412.8,229.2 412.3,230.1 411.8,231C408.3,231.1 404.8,231.2 401.3,231.2C401.6,229.7 403.3,228.7 404.7,229.1" style="fill-rule:nonzero;"/>
    <path d="M309.3,182.5C307,183.4 304.3,183.4 302.1,182.3C303.9,181.5 305.8,180.7 307.6,179.9C309.2,180.2 310.8,180.4 312.4,180.7C311.4,181.3 310.4,182 309.4,182.7" style="fill-rule:nonzero;"/>
    <path d="M459.2,258.3C455.6,259.6 451.6,259.5 448,258C448.6,256 451.5,256.1 453.4,257C455.2,257.8 457.3,259.2 459.2,258.3" style="fill-rule:nonzero;"/>
    <path d="M67.1,763.6C68.7,762.9 69.4,765.6 69,767.2C68.1,770.5 67.3,773.8 66.5,777C66.4,773.3 66.3,769.6 66.3,765.9C66.2,765 66.3,764 67.1,763.6" style="fill-rule:nonzero;"/>
    <path d="M180.9,782.7C180.7,783.6 180.5,784.6 180.3,785.6C181.9,785.9 182.9,788 182.2,789.5C181.6,790.3 180.1,790.3 179.5,789.5C178.4,786.1 178.5,782.3 179.9,779C180.4,780.1 180.5,781.4 180.3,782.5" style="fill-rule:nonzero;"/>
    <path d="M73.8,505L76.8,505C77.3,505.8 77.5,506.7 77.3,507.5C78,508 79,508.2 79.8,508C80.3,508.8 80.5,509.7 80.3,510.5C78,510.1 76,508.1 75.7,505.7C74.8,506.9 73.9,508 72.9,509.2C73.2,507.8 73.5,506.4 73.8,505" style="fill-rule:nonzero;"/>
    <path d="M706.9,803.8C709.4,804.8 711.8,805.8 714.3,806.8C710.8,806.7 707.3,807.8 704.5,810C704.2,807.8 705.2,805.6 707,804.3" style="fill-rule:nonzero;"/>
    <path d="M25.6,233.4C22.1,234 18.4,233.2 15.5,231.2C19.6,230.8 23.7,230.3 27.7,229.9C29.4,230.6 27.5,233.1 25.6,233.4" style="fill-rule:nonzero;"/>
    <path d="M359.3,277.5C361.2,278.1 363.2,278 365,277.2C365.1,278 365.3,278.8 365.4,279.6C361.7,281 357.5,280.8 354,279C355.7,278.4 357.5,277.8 359.2,277.2" style="fill-rule:nonzero;"/>
    <path d="M85.8,143C87.3,142.8 88.9,143 90.3,143.6C89.3,143.9 88.3,144.3 87.2,144.6C87.6,145.6 88.3,146.4 89.1,147C86.1,146.7 83.2,145.8 80.5,144.4C81.6,142.7 84,142.2 85.8,143.1" style="fill-rule:nonzero;"/>
    <path d="M78.3,435.5C79.5,435 80.6,434.5 81.8,434.1C82.9,434.7 83.5,436.1 83.2,437.4C80.3,439.1 76.6,439.6 73.3,438.6C75.5,438.1 77.7,437.6 79.9,437.2C80.1,436.3 79.2,435.5 78.4,435.7" style="fill-rule:nonzero;"/>
    <path d="M75.2,215.4C70.8,217.3 65.6,217.4 61.1,215.7C65.7,214.6 70.5,214.5 75.2,215.4" style="fill-rule:nonzero;"/>
    <path d="M186.9,196.1C186,196.3 184.9,196.3 184.5,195.5C184.3,195 184.4,194.4 184.8,194.1C189.3,193.8 193.9,193.9 198.4,194.6C194.5,195.1 190.7,195.6 186.9,196.1" style="fill-rule:nonzero;"/>
    <path d="M43.3,412.4C40.6,412.2 37.9,412.8 35.5,414C35.3,412.6 36.9,411.3 38.3,411.7C37.2,411.3 36.2,410.8 35.2,410.4C38,408.9 41.8,409.8 43.7,412.3" style="fill-rule:nonzero;"/>
    <path d="M264.8,276C262.2,276.3 259.4,275.7 257.2,274.2C261.9,273.6 266.7,273.7 271.4,274.5C269.2,274.9 266.9,275.2 264.7,275.6" style="fill-rule:nonzero;"/>
    <path d="M68.7,115.8C69.8,114.6 70.9,113.3 72,112.1C71.8,113.1 72.8,114.1 73.8,114C74.8,113.9 75.5,112.7 75,111.7C75.9,112.7 76.7,113.7 77.5,114.6C75.5,116.3 72.5,116.6 70.2,115.3" style="fill-rule:nonzero;"/>
    <path d="M501.6,293.3C504.2,293.1 506.8,292.9 509.4,292.7C507.3,296 502.7,297.3 499.2,295.7C500.2,295.3 501.2,294.9 502.3,294.5" style="fill-rule:nonzero;"/>
    <path d="M278,166.2C279.4,164.9 281.7,164.7 283.3,165.7C281.5,165.3 279.5,167 279.7,168.9C277.2,169.9 274.1,168.1 273.4,165.5C274.9,165.7 276.3,165.9 277.8,166" style="fill-rule:nonzero;"/>
    <path d="M448.3,195.5C453.4,194.4 458.7,194.6 463.6,196.2C458.5,196.7 453.4,196.5 448.3,195.5" style="fill-rule:nonzero;"/>
    <path d="M330.7,400.8C332.8,399.5 335.7,400 337.3,401.9C333.1,403.6 328.4,403.9 324,402.8C325.7,401 328.4,400.4 330.7,401.2" style="fill-rule:nonzero;"/>
    <path d="M432.7,357C431.9,357.1 431,357.1 430.4,356.5C430.1,356.3 430,355.9 430,355.6C433.7,353.7 438.6,354.1 442,356.5C438.9,356.7 435.8,356.9 432.7,357" style="fill-rule:nonzero;"/>
    <path d="M492.3,366.3C495.8,365.3 499.5,365.4 502.9,366.5C499.7,368.3 495.5,368.1 492.3,366.3" style="fill-rule:nonzero;"/>
    <path d="M257.7,222.8C258.6,222.4 259.4,221.9 260.3,221.5C259.3,221.1 258.3,220.8 257.3,220.4C261.3,219.5 265.8,220.4 269.2,222.9C265.4,223.1 261.5,223.1 257.7,222.8" style="fill-rule:nonzero;"/>
    <path d="M226.3,223.4C231.2,221.9 236.5,221.6 241.5,222.6C236.7,224.5 231.3,224.8 226.3,223.4" style="fill-rule:nonzero;"/>
    <path d="M63.8,207C65.9,207.4 68.1,207.1 69.9,206.2C70.4,207.2 70.5,208.4 70.3,209.5C69.5,210 68.6,210.2 67.7,210C67.6,208.6 66,207.6 64.7,208.2C65.1,208.8 65.5,209.4 66,210C64,210.3 61.9,209.7 60.4,208.4C61.6,208.4 62.9,207.9 63.9,207.1" style="fill-rule:nonzero;"/>
    <path d="M134.9,263.1C139,262.8 143.2,262.9 147.4,263.5C142.6,264.6 137.7,265.2 132.8,265C132.3,264 133.8,263.2 134.9,263.1" style="fill-rule:nonzero;"/>
    <path d="M94,243.3C95.8,242.3 98.2,242.8 99.5,244.5C95.1,245.4 90.4,245.2 86.1,243.7C88.6,242.9 91.2,242.7 93.8,243.1" style="fill-rule:nonzero;"/>
    <path d="M66,32.1C70.4,31 74.9,30.5 79.3,30.6C80,30.6 80.9,31 80.7,31.6C76,33.3 70.8,33.5 66,32.1" style="fill-rule:nonzero;"/>
    <path d="M105.2,57.7C104.3,57.1 105.1,55.3 106.2,55.6C104.6,55 103,54.7 101.3,54.5C104.9,53.7 108.6,53.6 112.3,54.1C111.8,55.1 111.3,56.1 110.8,57.1C109,56.8 107.1,57 105.5,57.8" style="fill-rule:nonzero;"/>
    <path d="M439.1,323.9C442.5,323.4 446,323.4 449.5,324C445.3,325.6 440.9,326.6 436.4,327.1C435.1,326 437.3,324.1 439.1,323.9" style="fill-rule:nonzero;"/>
    <path d="M26.2,83.6C29.1,82.8 32.3,82.7 35.2,83.5C34.6,84.8 34,86 33.4,87.3C32.9,86.2 32.3,85.2 31.7,84.1C31.4,85.1 31.1,86 30.8,87C30.6,86.2 29.2,86.1 29,86.9C28.1,85.9 27.2,85 26.3,84" style="fill-rule:nonzero;"/>
    <path d="M337.7,294.8C335.1,295.7 332.2,295.6 329.6,294.5C334.9,292.2 341.1,292.2 346.4,294.5C343.6,295.1 340.7,295.3 337.8,295" style="fill-rule:nonzero;"/>
    <path d="M165.5,173.1C164.8,173 163.9,172.9 163.6,172.3C163.4,172 163.4,171.6 163.6,171.3C168.9,170.6 174.4,171 179.6,172.3C175,173.1 170.2,173.4 165.5,173.1" style="fill-rule:nonzero;"/>
    <path d="M44.8,244C45.6,244 46.3,244.1 47,244.2C45.1,248 39.5,249.3 36.1,246.6C37.9,246 39.9,245.8 41.8,246C42.8,245.5 39.3,245.5 39.7,244.4C39.8,244 40.2,244 40.6,244C42,244 43.4,244 44.8,244.1" style="fill-rule:nonzero;"/>
    <path d="M62.5,184.1C60.7,184.5 58.5,185.4 58.4,187.3C57.1,185.1 54.2,185 51.7,185C52,184.1 52.3,183.2 52.6,182.3C55.9,183.1 59.2,183.7 62.5,184.1" style="fill-rule:nonzero;"/>
    <path d="M286.9,252.4C284,252.7 281,252.4 278.3,251.4C283.3,250.8 288.4,250.8 293.3,251.4C291.2,252.1 289,252.5 286.8,252.5" style="fill-rule:nonzero;"/>
    <path d="M429.9,141.4C427,143.8 422.8,144.3 419.5,142.6C418.7,142.3 417.6,141.9 417.2,142.6C420.8,140.1 425.8,139.6 429.9,141.4" style="fill-rule:nonzero;"/>
    <path d="M447.4,218.8C446.4,220.3 443.9,220.4 442.9,219C446,217.6 449.3,216.7 452.6,216.3C453,217.8 454.7,218.8 456.3,218.4C453.5,219.2 450.6,219.4 447.8,219" style="fill-rule:nonzero;"/>
    <path d="M449.9,373.3C449.6,373.9 449.2,374.4 448.8,375C447.9,374.4 447.3,373.2 447.3,372.1C451.5,372.4 455.6,373.5 459.3,375.5C456.3,377 452.4,376.2 450.2,373.6" style="fill-rule:nonzero;"/>
    <path d="M105.1,135.6C109,133.3 114.5,134 117.7,137.2C113.3,138.7 108.4,139 103.7,138.2C104.2,137.3 104.6,136.5 105.1,135.6" style="fill-rule:nonzero;"/>
    <path d="M30.8,176.8C33.1,176.1 35.9,176.8 37.6,178.5C32.8,179.3 27.9,179.3 23.1,178.6C24.2,176.6 27,175.7 29.1,176.8C28.8,176.2 29.3,175.4 30,175.5C30.6,175.6 30.9,176.5 30.5,177" style="fill-rule:nonzero;"/>
    <path d="M85.2,121.6C82.2,122.7 78.7,122.4 76,120.8C81,119.5 86.5,119.6 91.5,121.2C90.2,123.1 87.3,123.7 85.3,122.5" style="fill-rule:nonzero;"/>
    <path d="M72.4,223.6C68.6,224.7 64.7,225.2 60.8,225.2C59.1,225.2 57.1,224.9 56.3,223.4C61.6,222.7 67.1,222.8 72.4,223.6" style="fill-rule:nonzero;"/>
    <path d="M439.1,258C442.2,258.1 445.3,258.2 448.4,258.3C443.7,258.8 439.2,260.1 435,262.1C433.8,261.4 434.1,259.5 435.2,258.7C436.3,257.9 437.7,257.9 439.1,258" style="fill-rule:nonzero;"/>
    <path d="M427.4,198.6C421.3,199.3 415.2,199.4 409.1,198.8C415.1,197.7 421.3,197.6 427.4,198.6" style="fill-rule:nonzero;"/>
    <path d="M350.8,372C353,372.5 355.1,373 357.3,373.4C352.2,375.9 345.8,375.6 340.9,372.8C344.2,372.5 347.5,372.3 350.8,372" style="fill-rule:nonzero;"/>
    <path d="M450.3,347.2C446.7,349 442.6,349.7 438.6,349.4C437.3,349.3 435.6,348.7 435.4,347.4C440.3,346.7 445.4,346.6 450.3,347.2" style="fill-rule:nonzero;"/>
    <path d="M113.8,157C116.5,158.2 119.6,158.5 122.4,157.6C118.8,161.1 113.2,162.3 108.5,160.5C109.2,159.4 108.5,157.8 107.2,157.6C109.4,156.9 111.6,156.8 113.8,157.1" style="fill-rule:nonzero;"/>
    <path d="M417.2,252.3L434,252.3C429.1,255.7 422.1,255.7 417.2,252.3" style="fill-rule:nonzero;"/>
    <path d="M480.4,232.5C475.1,233.1 469.8,233.7 464.5,234.3C463,234.5 460.8,233.8 461.4,232.4C467.7,231.7 474.1,231.8 480.4,232.5" style="fill-rule:nonzero;"/>
    <path d="M324.4,393.4C329.7,392.2 335.2,391.9 340.6,392.6C335.6,395.1 329.6,395.4 324.4,393.4" style="fill-rule:nonzero;"/>
    <path d="M270.8,791C270.3,793.2 269.4,795.3 268.2,797.2C267.2,795 266.1,792.9 265.1,790.7C266.6,791.3 267.7,789.2 267.5,787.6C267.3,786 266.8,784 267.9,783C269,783.8 270.1,784.7 271.2,785.5C270,787 269.9,789.3 271.2,790.7" style="fill-rule:nonzero;"/>
    <path d="M16.3,786.6C16.6,787.6 15,788.4 14.3,787.6C15,786.3 12.4,785.8 11.3,786.7C10.1,787.6 8.4,788.8 7.5,787.6C8,784.9 11.3,783.1 13.8,784.2C14.4,783.1 14.5,781.7 14.3,780.5C15.1,779.8 16.5,779.8 17.4,780.5C17.4,781.4 16.7,782.3 15.8,782.4C15.9,783.8 15.9,785.2 16,786.5" style="fill-rule:nonzero;"/>
    <path d="M121.4,167C120.6,169.1 117.6,170 115.8,168.7C112.5,170.6 107.9,169.9 105.5,167C110.6,165.4 116.2,165.4 121.4,167" style="fill-rule:nonzero;"/>
    <path d="M306,246.1C300.3,246 294.6,244.9 289.2,243.2C294.6,240.4 301.8,241.7 306,246.1" style="fill-rule:nonzero;"/>
    <path d="M124.8,212.9C123.1,213.3 121.4,213.7 119.7,214.2C118.5,213.5 117.4,212.9 116.2,212.2C119,211.9 121.7,210.9 124.1,209.4C126.5,210.5 128.9,211.7 131.3,212.8C129.1,212.9 127,213 124.8,213.1" style="fill-rule:nonzero;"/>
    <path d="M110.8,181C112.5,181.1 114.2,181.2 115.8,181.2C114.6,181.3 115.1,183.8 116.3,183.4C111.8,185.5 106.1,184.7 102.3,181.4C105.2,181.5 108,181.6 110.8,181.7" style="fill-rule:nonzero;"/>
    <path d="M204.5,185.6C198.9,188 192.3,188.3 186.5,186.4C192.3,184.9 198.5,184.6 204.5,185.6" style="fill-rule:nonzero;"/>
    <path d="M113.3,264.7C118.7,262.3 125.1,262.3 130.5,264.6C127.4,264.5 124.4,265.1 121.6,266.3C119,265.1 116.1,264.6 113.3,264.7" style="fill-rule:nonzero;"/>
    <path d="M235.3,214.9C240.4,212.9 246.1,212.8 251.3,214.4C246.1,215.7 240.6,215.9 235.3,214.9" style="fill-rule:nonzero;"/>
    <path d="M77.3,212.4C83,211.7 88.8,211.8 94.5,212.5C89,214.4 83,213.4 77.3,212.4" style="fill-rule:nonzero;"/>
    <path d="M90,51.1C85.6,50.4 81.3,49.9 76.9,49.4C82.6,47.6 88.7,47.3 94.4,48.6C93.8,50.4 91.8,51.5 90,51.1" style="fill-rule:nonzero;"/>
    <path d="M487.8,288.2C484.5,287.7 481.3,287.2 478.1,286.6C482.7,283.7 489.1,283.8 493.6,286.9C491.7,287.1 489.7,287.3 487.8,287.5" style="fill-rule:nonzero;"/>
    <path d="M449.4,227.6C442.7,228.4 435.9,228.4 429.2,227.5C435.9,226.7 442.7,226.7 449.4,227.6" style="fill-rule:nonzero;"/>
    <path d="M420.5,350.3C415.4,350.6 410.2,350.8 405.1,351.1C403.6,351.2 401.7,350.9 401.4,349.5C407.7,348.4 414.3,348.7 420.5,350.3" style="fill-rule:nonzero;"/>
    <path d="M20.9,108.1C20.5,107.4 20.1,106.7 19.7,106C24.1,105.6 28.4,107.7 32.2,109.9C26.9,110.3 21.5,110.2 16.3,109.7C17.3,108.2 19.2,107.6 20.9,108.1" style="fill-rule:nonzero;"/>
    <path d="M134.5,160C132.9,159.1 135,156.9 136.8,156.6C141.9,155.7 147.3,156.2 152.3,157.7C146.9,158.5 141.4,159.3 136,160.1C135.5,160.2 134.9,160.2 134.5,160" style="fill-rule:nonzero;"/>
    <path d="M64,192.5C58,194.8 51.2,194.9 45.3,192.7C51.3,191 57.9,190.9 64,192.5" style="fill-rule:nonzero;"/>
    <path d="M268.9,244C269.2,245.4 271.9,244.7 271.5,243.3C273,244.8 275.2,245.6 277.3,245.5C271.3,246.5 265.2,246.6 259.2,245.8C262.1,244.3 265.5,243.8 268.8,244.1" style="fill-rule:nonzero;"/>
    <path d="M89.4,58.8C89.9,58.1 91,59.1 90.6,59.8C90.2,60.5 89.2,60.5 88.5,60.1C87.8,59.7 87.3,59 86.6,58.6C84.8,57.4 82,58.2 81.2,60.2C81.7,58.5 79.1,57.7 77.3,57.8C82.3,56.4 87.5,56.1 92.5,56.9C91.5,57.5 90.5,58.1 89.4,58.8" style="fill-rule:nonzero;"/>
    <path d="M96.7,24.3C98.7,24.4 100.7,24.5 102.7,24.6C100.2,25.6 97.7,26.5 95.2,27.5C96.1,27.8 97,28.2 97.9,28.6C94.9,29.2 91.8,29.3 88.8,28.7C91.7,28 94.5,26.5 96.7,24.3" style="fill-rule:nonzero;"/>
    <path d="M417.5,135.4C412.3,135.8 407.2,136.3 402,136.7C400.9,136.8 399.8,135.9 399.6,134.8C402.4,136.4 405.8,135 408.8,134.1C411.8,133.1 415.7,132.8 417.5,135.4" style="fill-rule:nonzero;"/>
    <path d="M462,389.5C468.3,389.4 474.6,389.3 480.9,389.2C479.6,390.2 478.4,391.2 477.1,392.1C472.1,391.2 467,390.4 462,389.5" style="fill-rule:nonzero;"/>
    <path d="M86.3,197.4C92.5,196.9 98.7,196.7 105,196.8C106.6,196.8 108.6,197.1 109.3,198.6C101.6,199.7 93.8,199.3 86.3,197.4" style="fill-rule:nonzero;"/>
    <path d="M84.2,138C88.5,136.4 93.2,136.1 97.8,135.8C98.5,135.8 99.2,135.8 99.9,135.7C100.5,135.7 101.2,135.7 101.8,136C101.6,138 99,138.5 97,138.4C92.7,138.3 88.4,138.1 84.2,138" style="fill-rule:nonzero;"/>
    <path d="M469.2,210.2C473.9,209.1 478.7,208.5 483.4,208.6C485.4,208.7 487.4,208.8 489.4,209C483,211.6 475.8,212 469.2,210.2" style="fill-rule:nonzero;"/>
    <path d="M492.7,255.2C486.5,255.8 480.3,256.5 474,257.1C472.6,257.3 470.7,257 470.5,255.6C477.8,254.4 485.4,254.2 492.7,255.2" style="fill-rule:nonzero;"/>
    <path d="M472.2,247.2C478.4,247.1 484.5,246.9 490.7,246.7C489.1,247.5 487.5,248.3 485.9,249C485,249.5 483.3,249.1 483.9,248.3C483.8,249.4 482.2,249.5 481.1,249.2C478.1,248.6 475.2,247.9 472.2,247.2" style="fill-rule:nonzero;"/>
    <path d="M343.5,179.5C335.8,181 327.9,180.9 320.3,179.4C328,178.7 335.8,178.8 343.5,179.5" style="fill-rule:nonzero;"/>
    <path d="M392.7,337C393.6,337.1 394.4,337.2 395.2,337.2C394.4,338.3 394.9,339.9 395.5,341.1C390.9,341.2 386.2,341.1 381.6,341C380.9,338 384.8,335.1 387.5,336.6C388.6,336.7 389.7,337.8 389.8,339C391.3,339.3 393.9,338.1 392.7,337" style="fill-rule:nonzero;"/>
    <path d="M325.7,799.6C326.2,799 327.1,798.8 327.8,799.1C329.3,801.3 329.6,804.3 328.4,806.7C328,807.7 327.2,808.9 327.7,809.9C328.2,810.9 329.5,811 330.3,811.6C331.1,812.2 330.8,814.1 329.9,813.7C328.8,811.7 325.7,811.5 324.3,813.2C323.9,808.6 324.4,804 325.7,799.6" style="fill-rule:nonzero;"/>
    <path d="M33.1,143.3C32.4,144.4 33,146.2 34.3,146.6C28.1,148.3 21.4,148.2 15.3,146.3C18.4,146.1 21.5,145.8 24.6,145.6C27.1,144 30.1,143.1 33.1,143.3" style="fill-rule:nonzero;"/>
    <path d="M110.3,151.4C107.4,152.3 104.5,153.3 101.6,154.3C100.6,154.9 99,154.2 98.9,153C98.7,154.4 97.1,155.4 95.7,155C96.1,154.3 96.5,153.6 96.9,152.9C94.7,153.4 91.8,153.4 91.1,151.3C97.5,150.8 104,150.8 110.3,151.4" style="fill-rule:nonzero;"/>
    <path d="M33.4,138.5C39.2,136.7 45.6,136.6 51.5,138.2C50.6,138.7 49.6,139.2 48.7,139.6C48.6,138.8 50.3,139.4 49.9,140.1C49.5,140.9 48.4,140.9 47.6,140.7C42.9,140 38.2,139.3 33.4,138.5" style="fill-rule:nonzero;"/>
    <path d="M29.2,209.5C30.9,208.4 32.8,207.6 34.7,207.2C35.3,209.2 39.2,208.2 38.6,206.1C41.5,205.8 44.4,206 47.3,206.4C42.1,210 35.3,211.1 29.2,209.5" style="fill-rule:nonzero;"/>
    <path d="M74.5,220.8C81.5,220.5 88.4,220.2 95.3,219.9C96.3,219.9 97.7,220.5 97.2,221.3C89.8,222.8 82,222.6 74.5,220.8" style="fill-rule:nonzero;"/>
    <path d="M34.3,245.3C30.7,245.2 27.1,245.2 23.4,245.1L22.5,245.1C19.7,245.1 16.9,245 14.1,245C20.4,244.2 26.7,243.5 33,242.7C33.4,243.6 33.9,244.4 34.3,245.3" style="fill-rule:nonzero;"/>
    <path d="M46.3,155.6C49.5,153 53.8,151.9 57.9,152.4C56.7,152.8 55.5,153.2 54.2,153.6C56.7,153.9 59.1,154.2 61.5,154.6C56.6,156 51.4,156.4 46.3,155.6" style="fill-rule:nonzero;"/>
    <path d="M476.3,270.5C483.1,269.1 490,268.6 496.9,269.1C498,269.1 499.4,269.6 499.4,270.7C491.7,271.6 483.9,271.5 476.3,270.5" style="fill-rule:nonzero;"/>
    <path d="M172.6,778.3C172.5,781.5 172.5,784.7 172.4,787.9C171.5,786.7 170.6,785.6 169.7,784.4C170.4,781.4 171,778.4 171.5,775.4C172.3,775.9 173.2,776.4 174,776.9C174.3,775.8 174,774.5 173.3,773.6C173.9,772.8 174.7,772.3 175.7,772C175.7,774.5 175.2,777 174.2,779.2" style="fill-rule:nonzero;"/>
    <path d="M92.3,214.9C98.1,210.9 105.9,210.3 112.3,213.2C105.6,213.8 99,214.3 92.3,214.9" style="fill-rule:nonzero;"/>
    <path d="M219.3,246.6C227.1,244.2 235.7,244.1 243.6,246.2C235.5,246.3 227.4,246.5 219.3,246.6" style="fill-rule:nonzero;"/>
    <path d="M468.9,241.6C472.6,239.7 476.6,238.6 480.6,238.2C484.3,238 487.9,238.3 491.6,238.6C484.2,240.8 476.6,241.8 468.9,241.6" style="fill-rule:nonzero;"/>
    <path d="M447,334C445.9,334 444.8,333.9 444,333.3C443.4,332.7 443.1,331.7 443.4,330.8C450.8,330.5 458.3,331.3 465.5,333.1C459.4,333.9 453.2,334.2 447,334" style="fill-rule:nonzero;"/>
    <path d="M363.6,364.5C369.4,364.3 375.2,364.1 381,363.9C382.7,363.8 384.9,364.1 385.3,365.7C378.2,367.9 370.4,367.5 363.6,364.5" style="fill-rule:nonzero;"/>
    <path d="M24.3,154.6C28.5,154.4 32.7,154.2 36.8,153.9C36.5,153.3 36.1,152.7 35.7,152.2C38.7,151.4 42.1,152.9 43.4,155.7C37.6,156.4 31.7,156.6 25.9,156.2C25,156.6 24,155.5 24.3,154.6" style="fill-rule:nonzero;"/>
    <path d="M205,199.8C208.5,199.6 212,199.4 215.5,199.1C219.8,198.8 224.2,198.6 228.4,199.9C222.3,200.3 216.2,201.1 210.2,202.3C208.5,201.5 206.7,200.6 205,199.8" style="fill-rule:nonzero;"/>
    <path d="M34.8,161.7C35.3,162.6 35.7,163.6 36.2,164.6C33,164.7 29.9,164.8 26.7,164.9C25.9,164.9 24.9,164.9 24.3,164.3C23.7,163.7 23.9,162.3 24.8,162.4C23,162.1 21.1,161.8 19.3,161.4C24.4,160.8 29.7,160.8 34.8,161.7" style="fill-rule:nonzero;"/>
    <path d="M363.9,357.7C369.1,357.2 374.3,356.6 379.5,356.1C382,355.9 384.5,355.7 386.7,356.8C382.5,360.5 376.3,360.2 370.9,359.7C368.4,359.5 365.7,359.3 363.9,357.7" style="fill-rule:nonzero;"/>
    <path d="M172,179.5C177.3,178.3 182.8,178.2 188.1,179.1C189.4,179.3 191.2,179.4 191.6,178.1C192.8,178.2 191.5,180 190.3,180.2C184.2,180.8 177.8,181.5 172,179.5" style="fill-rule:nonzero;"/>
    <path d="M455.6,340.5C453.7,342.3 450.6,342.7 448.3,341.4C449.4,341.5 450.2,340.3 449.8,339.3C457.1,338.2 464.6,338.9 471.6,341.1C466.4,342.7 460.7,342.5 455.6,340.5" style="fill-rule:nonzero;"/>
    <path d="M424.7,342.1C418.4,343 412,343.4 405.7,343.2C403.1,343.1 400.4,342.9 398.3,341.4C407.1,340.6 415.9,340.8 424.7,342.1" style="fill-rule:nonzero;"/>
    <path d="M16.3,92.7C23.3,91.2 30.5,91 37.5,92.1C35.2,92.3 33.1,93.2 31.3,94.5C26.3,95.2 21.1,94.5 16.3,92.7" style="fill-rule:nonzero;"/>
    <path d="M290,236.6C283.1,238.2 275.8,238.7 268.7,238.1C267,238 265.3,237.8 263.6,237.5C263.4,236.7 264.6,236.3 265.4,236.2C273.7,235.7 281.9,235.2 290,236.6" style="fill-rule:nonzero;"/>
    <path d="M64.4,8.5C60.6,9.2 56.7,9.3 52.8,9C52.4,10 52.1,11 51.7,12C52.1,10.5 49.1,9.9 48.9,11.5C45.7,11.6 42.5,11.6 39.3,11.7C42.3,11.8 45.2,10.5 47,8.3C52.8,7.8 58.6,7.9 64.4,8.5" style="fill-rule:nonzero;"/>
    <path d="M138.4,189.7C133.3,189.1 128,190.3 123.6,192.9C122.1,189.7 116.6,194 113.7,191.9C113.6,191.1 113.4,190.4 113.3,189.6C120.1,189 127,188.3 133.9,187.7C135.7,187.5 138.3,187.9 138.4,189.7" style="fill-rule:nonzero;"/>
    <path d="M85.7,248.7C88,249.4 90.4,250.1 92.7,250.8C94.3,251.5 95.8,252.2 97.4,252.9C90.8,252.7 84.2,252.6 77.6,252.6C77.5,251.3 77.9,250 78.8,249.1L81.6,249.1C82.2,251.1 85,252 86.6,250.7C86.3,250.1 86,249.4 85.7,248.7" style="fill-rule:nonzero;"/>
    <path d="M160.7,218.9C160.2,218.8 159.5,218.7 159.4,218.2C159.3,217.9 159.5,217.6 159.8,217.4C169,216.8 178.2,216.8 187.4,217.4C178.6,218.9 169.6,219.4 160.7,218.9" style="fill-rule:nonzero;"/>
    <path d="M105.3,176.3C101.8,176.4 98.4,175.8 95.2,174.4C104.3,173.7 113.5,173.8 122.5,174.5C119.6,175.9 116.3,176.3 113.1,176.6C109.5,176.9 105.9,177.3 102.3,177.6C103.3,177.2 104.3,176.7 105.3,176.3" style="fill-rule:nonzero;"/>
    <path d="M27.2,116.4C30.4,115.6 33.7,114.8 36.9,114C37,115.3 37.5,116.6 38.3,117.6C37.6,118.3 36.1,117.7 36.2,116.7C31.1,118.9 25.2,119.2 19.9,117.7C20.4,116.7 18.8,115.8 17.7,115.9C16.5,116 15.1,116.4 14.3,115.6C18.5,114.3 23.2,114.6 27.2,116.4" style="fill-rule:nonzero;"/>
    <path d="M99.8,128.2C100.3,128.1 99.8,127.2 99.2,127.2C98.6,127.1 97.8,127.1 97.8,126.5C97.7,125.9 98.5,125.8 99.1,125.9C100.4,126 101.7,126.2 103,126.4C102.7,129.8 98.1,130.6 94.7,130.4C88.8,130.2 83,129.9 77.1,129.6C84.5,127.9 92.2,127.4 99.8,128.2" style="fill-rule:nonzero;"/>
    <path d="M66.7,146.5C72.2,145.6 77.9,145.7 83.4,146.8C79,147.2 74.5,147.6 70.1,148.1C71.3,148.6 72.6,149.1 73.8,149.6C69.7,150.4 65.4,150.3 61.3,149.5C64,149.2 66.7,148.5 69.3,147.5C68.4,147.2 67.6,146.8 66.7,146.5" style="fill-rule:nonzero;"/>
    <path d="M93.7,62.6L109.7,62.6C112.9,62.6 116.2,62.6 119.4,62.4C111.2,66.8 101.1,67.6 92.3,64.7C92.8,64 93.2,63.3 93.7,62.6" style="fill-rule:nonzero;"/>
    <path d="M64.4,138.8C65.5,137.9 66.7,137 67.8,136.1C68.8,137.8 71.2,138 73,137.2C74.8,136.5 76.3,135.1 78.1,134.5C80.4,133.8 83.1,134.4 84.9,136C78.8,138.8 72.3,140.5 65.7,141.2C66.6,140.1 68,139.5 69.4,139.5C67.9,138.7 66.1,138.4 64.4,138.8" style="fill-rule:nonzero;"/>
    <path d="M79.3,41.4C77,41.2 74.6,40.9 72.2,40.7C76.8,39.3 81.8,39.1 86.5,40.3C90.3,41.4 94.1,42.4 97.9,43.4C90.2,43.2 82.5,43 74.7,42.8C76.3,42.3 77.8,41.9 79.3,41.4" style="fill-rule:nonzero;"/>
    <path d="M42.8,148.5C40.3,148.7 37.9,148 35.9,146.5C41.2,145.9 46.5,145.8 51.8,146.1C51.3,144.3 53.9,143.5 55.7,143.5C57.4,143.5 57.5,145.9 57.1,147.5C52.8,147.2 48.4,147.5 44.3,148.4C45.1,148.8 46,149.2 46.9,149.5C43.8,150.4 40.4,150.4 37.3,149.5C39.1,149.2 40.9,148.8 42.8,148.5" style="fill-rule:nonzero;"/>
    <path d="M65.3,199.5C69.6,200.8 74.3,200.5 78.3,198.7C80.1,200 82.2,200.7 84.3,200.7C80.7,201.1 77,201.6 73.3,202C71.9,202.1 70.4,202.3 69.1,201.9C65.9,201.1 62.6,200.7 59.3,200.8C60.3,200 61.7,199.7 62.9,200C62.6,199.5 62.2,198.9 61.8,198.3C63.9,197.4 66.3,197.4 68.3,198.5C67.3,198.8 66.3,199.2 65.3,199.5" style="fill-rule:nonzero;"/>
    <path d="M53.8,170C53.5,171 53.1,172 52.8,173.1C52.5,172.3 52.2,171.5 51.9,170.8C43.8,170.4 35.6,170.8 27.5,172C26.7,171.6 26.9,170.3 27.5,169.8C28.2,169.2 29.2,169.2 30,169.1C39.2,168.9 48.3,169 57.4,169.3C57.9,170.9 55.1,170.9 53.8,170" style="fill-rule:nonzero;"/>
    <path d="M419.2,158.4C426.4,157.4 433.6,157.1 440.9,157.5C441.3,157.1 441.9,157 442.5,156.9C445.2,156.3 447.9,155.8 450.7,155.2C451,156.1 451.4,157 451.8,157.9C441,159.4 430,159.6 419.2,158.4" style="fill-rule:nonzero;"/>
    <path d="M99.3,189.3C96.7,189.2 94.1,190.6 92.7,192.8C84.4,193.4 76,193.5 67.6,193.2C74.1,190.4 81.5,191.3 88.5,192.3C88.8,191.3 89.1,190.4 89.4,189.4C92.7,189.4 96,189.3 99.3,189.3" style="fill-rule:nonzero;"/>
    <path d="M382.1,349.5C383.5,346.9 387.3,347.5 390.1,348.5C392,349.1 393.8,349.8 395.6,350.4C385.6,351.7 375.3,351.7 365.3,350.2C364.2,349.3 365.4,347.3 366.9,347.3C368.4,347.3 369.5,348.5 370.5,349.5C370.3,348.7 370.1,347.9 369.9,347C371.1,347.2 372.3,347.4 373.5,347.6C376,349.1 379.1,349.8 382.1,349.5" style="fill-rule:nonzero;"/>
    <path d="M95.9,145.9C96.5,146.6 97.7,146.1 98,145.3C98.3,144.5 98,143.5 97.4,142.9C105,142.9 112.6,142.9 120.2,143C119.3,145.3 116.2,145.8 113.8,145.3C111.4,144.8 109.2,143.6 106.7,143.7C103.9,143.8 101.4,145.6 98.7,146.4C96,147.2 92.1,146.3 91.8,143.5C93.4,142.1 96.4,143.8 95.9,145.9" style="fill-rule:nonzero;"/>
    <path d="M108.9,207.3C105.2,207.5 101.4,207.7 98.1,206.1C100.1,205.6 102.1,205.1 104.1,204.5C109,203.2 114.8,202 119,205C123.3,202.3 128.9,202 133.5,204.2C130.6,206.1 126.6,206.5 123.3,205C122.8,204.8 122.3,204.5 121.9,204.2C120.8,206.8 117.3,208.1 114.8,206.9C112.8,207 110.8,207.1 108.9,207.3" style="fill-rule:nonzero;"/>
    <path d="M97.8,265.2C98.6,265.7 98.6,267 97.8,267.6L64,267.6C63,267.6 61.6,266.8 62.3,266.1C66.9,266 71.6,266 76.2,265.9C77.4,265.9 78.7,265.9 79.6,265C85.5,266.6 91.9,266.6 97.8,265.2" style="fill-rule:nonzero;"/>
    <path d="M29,130.6C27.1,130.1 25.2,129.7 23.3,129.6C27.1,127.6 31.6,129.9 35.8,130.8C44,132.6 52.4,128.5 60.8,129C60.9,130.2 61.1,131.5 61.2,132.8C49.6,133.3 37.9,133.2 26.2,132.6C26.6,131.4 27.8,130.6 29,130.6" style="fill-rule:nonzero;"/>
    <path d="M148.3,68.6C144.9,69.1 141.3,69.4 137.8,69.5C136.7,69.9 136,71 135.8,72.1C132,71.8 127.7,71.6 124.9,74.2C124.7,73.1 123.8,72.2 122.7,72C122.7,73.1 121.9,74.1 120.8,74.4C116,74.6 111.2,73.6 107,71.5C116.2,70.6 125.5,70.4 134.8,71C135.3,70.2 135.5,69.2 135.3,68.3C139.5,67.4 144.1,67.4 148.3,68.6" style="fill-rule:nonzero;"/>
    <path d="M816.4,714.7C817,708 817.6,701.2 818.1,694.5C816.5,695.8 814.3,696.2 812.4,695.6C813.4,693.7 815.6,692.5 817.8,692.5C817.7,585.1 817.7,477.8 817.9,370.4C817.9,367.2 818.3,363.4 821.2,362C821.4,493.3 821.5,624.5 821.7,755.8C819.3,754 816.9,752.2 814.4,750.4C816,749.1 817.7,747.8 819.3,746.6C818.7,745.4 817.2,744.7 815.9,745.2C819.6,735.5 819.8,724.5 816.4,714.7" style="fill-rule:nonzero;"/>
</svg>
