<?xml version="1.0" encoding="UTF-8" standalone="no"?>
<!DOCTYPE svg PUBLIC "-//W3C//DTD SVG 1.1//EN" "http://www.w3.org/Graphics/SVG/1.1/DTD/svg11.dtd">
<svg width="100%" height="100%" viewBox="0 0 808 830" version="1.1" xmlns="http://www.w3.org/2000/svg" xmlns:xlink="http://www.w3.org/1999/xlink" xml:space="preserve" xmlns:serif="http://www.serif.com/" style="fill-rule:evenodd;clip-rule:evenodd;stroke-linejoin:round;stroke-miterlimit:2;">
    <g transform="matrix(5.89733e-17,-0.963107,0.963107,5.89733e-17,4.6625,803.657)">
        <path d="M10.5,95.3C24,56 56.4,23.8 95.7,10.2C125.1,0 157,0 188.2,0.1C331.9,0.5 475.7,1 619.4,1.4C653.6,1.5 688.8,1.8 720.6,14.5C759.1,30 789.7,64.1 800.9,104.1C807.6,127.8 807.6,152.8 807.7,177.5C807.7,332.3 807.8,487.2 807.9,642C807.9,669.9 807.9,698.2 800.3,725C788.3,767.1 756.4,803.8 715.1,818.5C688,828.1 658.5,828.3 629.7,828.3C479.2,828.6 328.6,828.8 178.1,829.1C151.5,829.1 124.4,829.1 99,821.4C60.5,809.7 27.9,779.9 12.9,742.6C0.1,710.6 0,675.2 0.1,640.8C0.3,488.3 0.5,335.8 0.8,183.2C0.8,153.6 0.9,123.3 10.5,95.3M357.1,452.4C341.7,453.6 326.3,455.8 311.9,461.3C269.9,477.4 242.3,520.3 234.5,564.5C226.7,608.8 235.8,654.4 249.3,697.3C250.4,701 251.8,704.9 255.1,706.8C257.5,708.1 260.3,708.2 263,708.2C385.8,707.6 508.6,707.1 631.5,706.6C631.6,683.6 631.7,660.7 631.8,637.7C631.8,634.3 630.7,629.8 627.3,629.8C594.1,630.1 560.8,630.4 527.6,630.7C523.8,630.8 518.6,629.3 519,625.6C523.8,586.5 515,545.5 492.8,513.1C470.5,480.6 434.6,457.4 395.5,452.6C382.8,451 369.9,451.4 357.1,452.4M420.2,336.2C425.1,333.1 431.4,336.1 436.3,339.1C491.3,372.4 546.4,405.7 601.5,439C601.8,414.2 602.2,389.4 602.6,364.6C602.6,362.3 602.6,359.9 601.5,357.9C600.2,355.7 597.9,354.4 595.7,353.3C552.7,330.4 509.6,307.6 466.6,284.8C510.1,261.3 553.5,237.9 597,214.4C598.7,213.5 600.5,212.5 601.6,210.8C602.8,208.9 602.8,206.6 602.9,204.4C603,178.6 603.1,152.8 603.3,126.9C601.6,124.2 597.4,125.6 594.6,127.2C538,160.5 481.3,193.8 424.7,227.1C421.2,229.2 416.8,227.1 413.4,224.9C355.7,189.8 298,154.7 240.4,119.6C239.1,145.2 238.9,170.9 239.6,196.4C239.7,199.7 239.9,203.1 241.8,205.7C243.2,207.8 245.5,209 247.8,210.2C281.8,228.5 315.8,246.9 349.8,265.2C359.4,270.3 369.2,275.5 379.9,277.2C335.7,300.8 291.5,324.5 247.3,348.2C244.9,349.5 242.4,350.8 240.9,353.2C239.3,355.7 239.3,359 239.3,362.1C239.6,389.8 239.8,417.6 240.1,445.3C300.7,409.9 360.7,373.5 420.2,336.2" style="fill-rule:nonzero;"/>
    </g>
    <path d="M560.1,214.5C560.9,214.2 561.9,214.4 562.6,214.9C562.7,215.8 562.6,216.8 562.1,217.6C560.2,217.4 558.3,217.2 556.5,217C556.9,215.6 558.5,214.5 560,214.7" style="fill-rule:nonzero;"/>
    <path d="M593.1,199.4L589.1,199.4C589,198.6 588.9,197.8 588.8,197C590.4,195.5 593.2,195.7 594.7,197.3C594.2,198 593.7,198.8 593.2,199.5" style="fill-rule:nonzero;"/>
    <path d="M431.9,295.4C432,296.7 432.6,297.9 433.6,298.8C432.8,301 428.6,300.3 428.6,298C429.4,296.8 430.7,295.9 432,295.4" style="fill-rule:nonzero;"/>
    <path d="M520.3,350.8C519.7,352.6 519.3,354.5 519.1,356.4C518.3,355 517.4,353.5 517.4,351.9C517.4,350.2 518.5,348.4 520.2,348.4C520.4,349.2 520.5,350.1 520.7,350.9" style="fill-rule:nonzero;"/>
    <path d="M481.1,256.5C481.9,256.3 482.8,256.4 483.5,256.8C480.9,259 476.9,259.1 474.2,257.2C476.4,256.9 478.7,256.5 481,256.1" style="fill-rule:nonzero;"/>
    <path d="M373.9,256.9C376.7,256.1 380.1,257.5 381.5,260.1C379,260.5 376.5,260.6 374.1,260.4C373.4,259.6 373.3,258.3 374,257.4" style="fill-rule:nonzero;"/>
    <path d="M291.1,348.5C289.5,348.4 288,347.3 287.5,345.9C290.5,345 293.8,345.4 296.5,347C294.9,348.1 292.9,348.6 291.1,348.4" style="fill-rule:nonzero;"/>
    <path d="M448.7,225.3C451.6,225.9 453,230.3 450.9,232.5C450.2,230.9 448.9,229.6 447.4,228.8C447.7,227.8 447.9,226.8 448.2,225.8" style="fill-rule:nonzero;"/>
    <path d="M285,373.7C286.7,374 288.1,375.6 288,377.3C285.4,378.3 282.1,376.5 281.8,373.7C282.9,373.8 284,373.8 285.1,373.9" style="fill-rule:nonzero;"/>
    <path d="M540.6,239.9C539,240.8 537.4,241.6 535.9,242.4C536,241 536.3,239.5 537.2,238.3C538.1,237.2 539.9,236.6 541,237.5C542.2,238.4 541.7,240.7 540.3,240.7" style="fill-rule:nonzero;"/>
    <path d="M460.1,228.9C460,226.7 461.9,224.6 464.1,224.4C463.4,227.1 462.2,229.7 460.4,231.9C460.1,231 459.7,230 459.3,229.1" style="fill-rule:nonzero;"/>
    <path d="M250.4,373.9C250.5,375 251.5,375.8 252.5,375.8C251.5,376.9 251.2,378.5 251.6,379.9C250.8,380.4 249.8,380.6 248.9,380.5C248.4,378.1 248.9,375.6 250.1,373.6" style="fill-rule:nonzero;"/>
    <path d="M438.2,328.3C438.9,329.3 439.5,330.2 440.2,331.2C436.7,331.8 432.3,331.9 430.5,328.8C433,328.4 435.5,328.2 438.1,328.5" style="fill-rule:nonzero;"/>
    <path d="M501.3,215.8C503.4,214.3 506.3,214 508.6,215C506.9,215.6 505.6,217.3 505.3,219.1C503.8,218 502.2,217 500.7,215.9" style="fill-rule:nonzero;"/>
    <path d="M443.1,322.3C444.2,322.5 445.4,322.6 446.6,322.7C444.7,323.6 442.9,324.5 441.1,325.4C440.7,324 439.1,323 437.6,323.2C439.2,322 441.3,321.5 443.2,322" style="fill-rule:nonzero;"/>
    <path d="M416,234.3C412.7,234.7 409.1,235 406.4,233.1C408.8,229.9 414.7,230.6 416.3,234.3" style="fill-rule:nonzero;"/>
    <path d="M355.1,354.5C354.7,354.9 354,354.2 354.2,353.7C354.4,353.1 355.1,352.9 355.7,352.8C354.9,351.6 354.5,350.2 354.5,348.8C356.3,347.6 359.3,349 359.5,351.2C359.7,353.4 357.1,355.4 355,354.5" style="fill-rule:nonzero;"/>
    <path d="M429.3,236.4C429.4,237.4 429.5,238.3 429.6,239.2C427.5,239.1 425.3,238.9 423.1,238.7C422.1,239 421.1,237.6 421.7,236.7C423.2,236.9 424.7,235.9 425.1,234.4C426.4,235.1 427.7,235.7 429.1,236.4" style="fill-rule:nonzero;"/>
    <path d="M304.6,168.2C305.2,170.1 303.5,172.2 301.5,172.6C299.6,173.1 297.5,172.5 295.6,171.9C296.7,170.7 297.9,169.6 299,168.5C300.2,169.8 302.7,169.6 303.7,168.2" style="fill-rule:nonzero;"/>
    <path d="M403.7,252.9C402,251.2 404.3,248.5 406.4,247.2C407.8,250.1 407.2,253.9 404.8,256.2C403.8,255.5 403.3,254.1 403.6,252.9" style="fill-rule:nonzero;"/>
    <path d="M419.4,288.1C418.1,286.6 417.1,284.8 416.6,282.9C419.1,282.3 421.7,282.2 424.1,282.7C422.1,283.5 420.6,285.3 420.1,287.4" style="fill-rule:nonzero;"/>
    <path d="M350.4,227.1C351.1,227.9 349.6,228.7 348.6,228.8C346.3,229 344.1,229.1 341.8,229.3C342.7,227.8 343.9,226.3 345.6,225.7C347.2,225.1 349.4,225.6 350.2,227.1" style="fill-rule:nonzero;"/>
    <path d="M400.5,263.9C398.2,266.8 392.6,265.2 392.3,261.6C395,262.2 397.8,262.8 400.6,263.4" style="fill-rule:nonzero;"/>
    <path d="M484.5,240.5C483.2,239.7 481.9,238.8 480.6,238C481.4,236.7 481.9,235.1 481.9,233.5C482.8,234 483.7,234.5 484.5,234.9C484.7,236.8 484.8,238.6 485,240.4" style="fill-rule:nonzero;"/>
    <path d="M587.5,198.8C584.7,200.2 581.3,200.2 578.5,198.9C579.9,199.2 581.4,197.7 581.1,196.3C583.4,196.7 585.6,197.6 587.5,199" style="fill-rule:nonzero;"/>
    <path d="M541.6,363C540.8,363.3 540,363.6 539.2,363.9C537.6,363.3 535.9,362.6 535.1,361C534.4,359.5 535.5,357.2 537.1,357.5C537.6,357.5 538.1,357.8 538.5,358.2C540,359.4 541.4,360.9 542.4,362.6" style="fill-rule:nonzero;"/>
    <path d="M258.4,398.9C260.3,397.8 262,400.8 261.8,403C261.6,405.7 260.5,408.3 258.8,410.5C258.7,406.6 258.6,402.7 258.4,398.9" style="fill-rule:nonzero;"/>
    <path d="M583.3,141.7C584.8,140.1 587.5,140 589,141.5C587.3,142.5 585.5,143.4 583.8,144.4C582,145.4 579,145.9 578.6,143.9C579.9,142.7 581.4,141.8 583.1,141.5" style="fill-rule:nonzero;"/>
    <path d="M391.8,227.1C391.2,226.6 392.5,226.1 393.1,226.5C395.7,228.1 396.7,231.8 395.3,234.5C393.1,232.7 391.9,229.8 391.9,227" style="fill-rule:nonzero;"/>
    <path d="M335.1,355.3C335.9,355.5 336.7,355.6 337.5,355.8C334.8,358.1 330.7,358.6 327.5,357C329.5,355.4 332.4,355 334.8,356.1" style="fill-rule:nonzero;"/>
    <path d="M276.2,172.4C275.3,171.6 273.7,171.9 273.1,173C271.2,172.7 269.1,172.7 267.2,173C269.4,170.3 273.8,169.7 276.7,171.8" style="fill-rule:nonzero;"/>
    <path d="M394.8,322.6C394.5,323.2 393.6,323.3 392.9,323.3C389.6,323.2 386.4,321.9 383.8,319.8C386.9,318.8 390.4,319 393.3,320.3C394.3,320.7 395.3,321.7 394.8,322.6" style="fill-rule:nonzero;"/>
    <path d="M452.6,299.8C451.7,299.6 451.3,298.2 452,297.5C455.2,297.6 458.3,297.6 461.4,297.7C460.7,301.2 455.3,302.4 453.1,299.6" style="fill-rule:nonzero;"/>
    <path d="M595,412.1C595.6,413.9 595.3,416 594.1,417.4C593.1,413.7 592.7,409.8 593,406C594.6,407.5 595.4,409.7 595.3,411.9" style="fill-rule:nonzero;"/>
    <path d="M332.3,322.6C329.4,323.8 326.2,324 323.1,323.3C322.6,322.2 322.2,321 321.7,319.9C325.1,317.7 330.4,319 332.3,322.6" style="fill-rule:nonzero;"/>
    <path d="M513.4,356.2C514.8,356 514.4,358.6 513,358.6C511.7,358.7 510.7,357.5 509.7,356.7C508.6,355.8 506.8,355.5 506.2,356.6C505.9,355.3 505.3,353.9 504.6,352.7C507.8,352.2 511.3,353.5 513.5,356" style="fill-rule:nonzero;"/>
    <path d="M466.9,295.2C469.9,293 474.7,293.9 476.7,297C472.7,298 468.4,297.5 464.6,295.7C465.4,295.6 466.2,295.5 467,295.3" style="fill-rule:nonzero;"/>
    <path d="M329.1,199C331.6,198.8 334.2,200.1 335.6,202.1C332.4,202.2 329.2,202.3 326,202.4C326.6,201.5 325.6,200.2 324.5,199.9C326.1,199.6 327.6,199.2 329.2,198.8" style="fill-rule:nonzero;"/>
    <path d="M551,164.7C553.8,165.1 556.5,165.5 559.2,165.9C559.5,167.9 556.5,168.6 554.6,168C552.7,167.3 550.6,166.1 548.8,167.1C548.4,165.7 549.8,164.2 551.1,164.4" style="fill-rule:nonzero;"/>
    <path d="M493.6,332C491.3,334.1 488,335 485,334.4C484.5,333.3 484.3,332.1 484.6,330.9C485.7,330.5 487.1,330.7 488,331.5C488.2,329.8 490.5,329.3 492.3,329.3C493.3,329.3 494.4,329.4 494.9,330.3C495.5,331.1 494.1,332.5 493.6,331.6" style="fill-rule:nonzero;"/>
    <path d="M551.5,189C553,189 553.4,191.7 551.9,192.1C548.9,193.2 545.5,193.2 542.5,192C543.4,191.8 543.4,190.3 542.6,190C545.5,189.5 548.5,189 551.5,188.5" style="fill-rule:nonzero;"/>
    <path d="M375.2,473.5C375.1,469.9 375,466.3 374.9,462.7C376.2,462.1 377.1,464.2 376.9,465.6C376.8,467 377,469.1 378.5,469.1C377.4,468.5 377.2,471.1 378.4,470.7C377.3,471.7 376.3,472.6 375.2,473.5" style="fill-rule:nonzero;"/>
    <path d="M402,330.7C399.1,332.1 395.2,330.8 393.8,327.9C395.2,326.7 397.7,327.6 398.1,329.4C398.6,328 398.8,326.4 398.6,324.9C399.5,325.1 400.5,324.9 401.4,324.5C401.1,326.3 401.1,328.2 401.4,330" style="fill-rule:nonzero;"/>
    <path d="M484.6,240.4C485.5,241.6 487.1,242.2 488.5,241.8C488.5,242.9 488.6,243.9 488.6,245C485.7,245.4 482.9,245.8 480,246.1C479.8,244.9 481.6,244.4 482.8,244.4C483.4,243.1 484,241.8 484.6,240.5" style="fill-rule:nonzero;"/>
    <path d="M531.5,352.9C534.4,352.2 537.6,352.7 540.3,354.1C541.7,352.7 544.5,353.9 544.5,355.9L533.8,355.9C533,354.9 532.3,353.9 531.5,352.9" style="fill-rule:nonzero;"/>
    <path d="M456.4,240.9C461.4,240.4 466.5,240 471.6,239.5C467.9,243.8 460.8,244.4 456.4,240.9" style="fill-rule:nonzero;"/>
    <path d="M321.2,352.2C321.7,350.6 321,348.8 319.6,348C323.2,346.2 327.7,346.2 331.4,348C328.6,347.6 326.8,351.4 327.7,354.1C325.4,354.8 322.7,354 321.2,352.2" style="fill-rule:nonzero;"/>
    <path d="M509.2,185.9C513.5,186.7 517.8,188 521.9,189.9C522.5,190.6 523,191.3 523.6,192C518.2,193.5 511.8,190.9 509.2,185.9" style="fill-rule:nonzero;"/>
    <path d="M521.1,211.4C521.6,212 521.7,212.9 521.2,213.5C518.3,215.3 515.4,217.2 512.5,219C511.4,219.6 509.4,220 509.2,218.7C510.4,218.7 511.8,218.3 512.2,217.2C512.7,216.1 511.6,214.5 510.5,215.1C511,213.9 511.5,212.6 512,211.4L521.1,211.4" style="fill-rule:nonzero;"/>
    <path d="M280.8,412.7C279.6,410.5 278.9,408.1 278.7,405.7C278.5,403.5 278.7,401 280.3,399.4C281.4,404.3 282.8,409.1 284.5,413.8C283.9,415.3 281.6,414.1 280.8,412.7" style="fill-rule:nonzero;"/>
    <path d="M294.6,378.9C296.4,380.7 299.4,381.2 301.7,380.2C301.7,381.3 301.8,382.4 301.8,383.5C298.5,383.3 295.2,383.1 292,382.9C291.2,382.9 290.3,382.8 289.8,382.2C288.9,381.3 289.6,379.6 290.8,379C291.9,378.4 293.3,378.7 294.6,378.9" style="fill-rule:nonzero;"/>
    <path d="M597.4,145.9C597,146.9 596,147.5 595,147.5C596.5,143.3 592.3,138.3 588,139C590,136.1 595,136.1 597.1,139C597.2,141.3 597.3,143.6 597.4,145.9" style="fill-rule:nonzero;"/>
    <path d="M423.9,268C423.7,266.2 423.4,264.3 423.2,262.5C424.4,264 426.6,264.1 428.6,263.9C431.1,263.8 433.5,263.6 436,263.5C436.8,264.9 437.7,266.4 438.5,267.9C433.6,267.9 428.8,268 423.9,268" style="fill-rule:nonzero;"/>
    <path d="M320.3,388.8C320.6,386.1 323.3,383.9 326,384.2C327.5,384.4 329,384.5 330.6,384.7C326.1,388.8 320.4,391.5 314.5,392.6C316.4,391.3 318.4,390.1 320.3,388.8" style="fill-rule:nonzero;"/>
    <path d="M515.7,330.2C518.6,331 521.7,331.9 523.5,334.4C520.8,334.5 518.2,334.7 515.5,334.9C512.9,333.2 510.3,331.6 507.6,329.9C509.3,328.6 511.8,329.1 513.8,329.7C514.4,329.8 515,330 515.7,330.2" style="fill-rule:nonzero;"/>
    <path d="M437.3,260.1C443,257.5 449.9,258.3 455,261.9C453.1,261.8 451.2,261.6 449.4,261.5C445.4,260.8 441.3,260.3 437.3,260.1" style="fill-rule:nonzero;"/>
    <path d="M565.3,194.2C563.4,192.5 561.4,190.8 559.5,189C559.8,187.7 561.8,187.9 563.1,188.4C567.2,190.2 571.3,192 575.3,193.8C571.5,194.3 567.7,194.9 563.9,195.4C563.9,194.6 564.8,193.9 565.5,194.1" style="fill-rule:nonzero;"/>
    <path d="M339.9,229C335.3,232.6 328.9,233.8 323.2,232.1C322.8,231.3 322.4,230.5 321.9,229.8C323.3,228.7 325.7,230.1 325.5,231.8C326,230.8 326.5,229.9 327,229C331.2,229.6 335.6,229.6 339.9,229" style="fill-rule:nonzero;"/>
    <path d="M572.7,164.5C566.2,163.5 559.8,161.8 553.6,159.6C560.3,158.5 567.3,160.4 572.7,164.5" style="fill-rule:nonzero;"/>
    <path d="M449.6,269.1C452.2,267.8 454.9,266.5 457.6,265.2C458.9,268.7 464.2,268 467.7,266.6C466.2,268 464.7,269.5 463.2,270.9C462.1,272 460.4,273.1 459.2,272.2C456.4,270.2 453,269.1 449.6,269.1" style="fill-rule:nonzero;"/>
    <path d="M561,365.4C561.1,361.6 561.1,357.8 561.2,354C566.3,352.3 573.3,351.2 575.9,356C573.3,354.8 570.1,356 568.2,358C566.2,360.1 565.2,362.8 564.3,365.5C563.2,365.5 562.1,365.5 561,365.4" style="fill-rule:nonzero;"/>
    <path d="M453.3,331C452.7,329.7 454.1,328.3 455.4,328.2C456.8,328.1 458.1,328.8 459.3,329.5C459.7,329.8 460.2,330.1 460.6,330.3C463.2,326.8 469.5,327.3 471.6,331.1C465.9,333.9 458.9,333.8 453.3,331" style="fill-rule:nonzero;"/>
    <path d="M485.4,210.1C488.9,211.3 492.3,213 495.4,215C487.9,216.4 480.2,216.7 472.5,216C476.1,215.6 479.5,213.6 481.4,210.6C482.2,209.3 484,209.6 485.4,210.1" style="fill-rule:nonzero;"/>
    <path d="M555.7,227.4C556.7,224.3 559.7,221.9 563,221.8C565.4,219.5 568.7,218.2 571.9,218.1C573.3,218.5 574.7,218.9 576,219.4C570,223.7 563,226.4 555.7,227.4" style="fill-rule:nonzero;"/>
    <path d="M533.5,219C532.7,218.5 531.9,218 531,217.5C530.4,218.1 529.8,218.8 529.1,219.4C528.3,218.2 527,217.4 525.6,217.2C525.6,214.8 529.3,215 531.6,215.7C535.7,216.8 540.1,216.6 544.1,215C543.4,216.9 542.7,218.9 542,220.9C539.2,222.3 535.9,222.4 533.1,221.1C533.2,220.4 533.3,219.7 533.5,219" style="fill-rule:nonzero;"/>
    <path d="M596.7,168C595.3,168 593.9,168.7 593.1,169.9C589.2,169.5 585.2,169.6 581.4,170.5C580.5,167.4 576.7,166.4 573.6,165.8C579.3,165.9 585.1,166 590.9,166.1C593,166.2 595.4,166.4 596.7,168" style="fill-rule:nonzero;"/>
    <path d="M368.9,204.4C360.6,206.3 351.4,204.2 344.9,198.7C347.2,197.4 350,196.8 352.6,197C357.5,200.4 363.1,203 368.9,204.4" style="fill-rule:nonzero;"/>
    <path d="M493.4,239.8C497.3,239.9 501.2,241.4 504.1,244.1C504.7,242.7 506.6,242.5 508.1,242.6C516,243.3 524,243.9 531.9,244.5C524.6,246.4 517.1,247.5 509.5,247.6C505.8,247.7 501.1,246.9 499.9,243.3C497.4,244.9 493.4,242.8 493.4,239.8" style="fill-rule:nonzero;"/>
    <g transform="matrix(6.12323e-17,-1,1,6.12323e-17,-16.8632,824.055)">
        <path d="M300.2,624.4C297.9,609.3 297.9,593.7 302.1,579.1C306.3,564.5 315.1,550.9 327.9,542.7C335.2,538 343.6,535.1 352,533.1C363.2,530.3 374.8,528.8 386.3,529.8C409.2,532 431,545 443.7,564.2C456.5,583.4 460,608.4 453,630.4C404.6,630.4 356.3,630.5 307.9,630.5C305.8,630.5 303.4,630.4 301.9,628.9C300.8,627.7 300.5,626 300.2,624.4" style="fill-rule:nonzero;"/>
    </g>
</svg>
